<?xml version="1.0" encoding="UTF-8" standalone="no"?><!DOCTYPE svg PUBLIC "-//W3C//DTD SVG 1.1//EN" "http://www.w3.org/Graphics/SVG/1.1/DTD/svg11.dtd"><svg width="100%" height="100%" viewBox="0 0 125 200" version="1.1" xmlns="http://www.w3.org/2000/svg" xmlns:xlink="http://www.w3.org/1999/xlink" xml:space="preserve" xmlns:serif="http://www.serif.com/" style="fill-rule:evenodd;clip-rule:evenodd;stroke-linejoin:round;stroke-miterlimit:2;"><g transform="matrix(1,0,0,1,-577.075,-515.282)"><text x="577.002px" y="683.534px" style="font-family:'Poppins-Black', 'Poppins';font-weight:900;font-size:33.705px;fill:#2d2d2d;">L<tspan x="596.281px 625.065px 649.872px 670.837px " y="683.534px 683.534px 683.534px 683.534px ">OREM</tspan></text><text x="577.075px" y="709.546px" style="font-family:'Poppins-Black', 'Poppins';font-weight:900;font-size:20.402px;fill:#2d2d2d;">Y<tspan x="590.375px 601.758px 614.385px " y="709.546px 709.546px 709.546px ">our</tspan></text><text x="627.305px" y="709.546px" style="font-family:'Poppins-Black', 'Poppins';font-weight:900;font-size:20.402px;fill:#2d2d2d;">T<tspan x="638.279px 650.559px 662.84px 667.816px 672.792px 685.419px " y="709.546px 709.546px 709.546px 709.546px 709.546px 709.546px ">agline</tspan></text></g><path d="M22.375,32.141l0.06,-0.034l-18.617,-10.75l0,42.923l18.557,-10.716l0,-21.423Z" style="fill:#931a3d;fill-rule:nonzero;"/><path d="M3.818,21.357l18.616,10.75l18.497,-10.682l0,-21.425l-37.113,21.357Z" style="fill:#ee3e30;fill-rule:nonzero;"/><path d="M115.285,21.357l-37.24,-21.357l0,21.425l18.556,10.716l0,0.002l18.684,-10.786Z" style="fill:#931a3d;fill-rule:nonzero;"/><path d="M59.486,96.421l-18.556,-10.716l-18.555,10.716l37.176,21.469l0,-21.508l-0.065,0.039Z" style="fill:#ee3e30;fill-rule:nonzero;"/><path d="M96.602,96.421l-18.557,-10.716l-0.003,0l-18.49,10.677l0,21.508l37.05,-21.469Z" style="fill:#931a3d;fill-rule:nonzero;"/><path d="M96.602,32.143l0,21.421l18.556,10.716l0.128,-42.923l-18.684,10.786Z" style="fill:#ee3e30;fill-rule:nonzero;"/><path d="M78.046,64.281l0.058,-0.033" style="fill:none;fill-rule:nonzero;"/><path d="M59.542,90.758l15.714,-9.074l0,-18.208l-15.714,-9.074l0,36.356Z" style="fill:#f58b1f;fill-rule:nonzero;"/><path d="M46.157,62.068l-2.439,1.409l0,18.207l-0.001,0l15.769,9.107l0,-36.417l-13.329,7.694Z" style="fill:#ffc724;fill-rule:nonzero;"/><path d="M59.488,36.163l-15.771,-9.106l-15.719,9.077l31.49,18.183l0,-18.154Z" style="fill:#ffc724;fill-rule:nonzero;"/><path d="M27.947,54.369l15.77,9.106l15.769,-9.106l-31.539,-18.206l0,18.206Z" style="fill:#f58b1f;fill-rule:nonzero;"/><path d="M59.542,54.339l-0.008,0.004l-0.046,0.027l0.002,0.001l0.052,0.03l15.714,9.075l0.003,0.001l0.001,-0.001l0.049,-0.029l15.719,-9.077l0,-0.002l0,-18.204l0,-0.002l-31.486,18.177Z" style="fill:#ffc724;fill-rule:nonzero;"/><path d="M59.542,54.339l31.486,-18.177l-15.769,-9.106l-15.717,9.074l0,18.209Z" style="fill:#f58b1f;fill-rule:nonzero;"/></svg>