<?xml version="1.0" encoding="UTF-8" standalone="no"?><!DOCTYPE svg PUBLIC "-//W3C//DTD SVG 1.1//EN" "http://www.w3.org/Graphics/SVG/1.1/DTD/svg11.dtd"><svg width="100%" height="100%" viewBox="0 0 813 1144" version="1.1" xmlns="http://www.w3.org/2000/svg" xmlns:xlink="http://www.w3.org/1999/xlink" xml:space="preserve" xmlns:serif="http://www.serif.com/" style="fill-rule:evenodd;clip-rule:evenodd;stroke-linejoin:round;stroke-miterlimit:2;"><path d="M124.225,3.501c-5.308,0.579 -10.554,1.284 -15.729,2.05c138.688,38.492 -55.696,181.4 -99.879,333.009c-7.163,24.616 -10.425,49.425 -7.608,74.108c4.537,39.646 18.925,81.654 39.129,124.687c7.483,15.796 15.671,31.78 24.491,47.763c14.513,26.283 30.563,52.754 47.317,78.971c36.896,57.933 76.983,114.904 110.492,167.208c3.516,5.367 6.841,10.742 10.166,15.979c17.075,11.771 34.275,23.409 50.9,35.621c22.442,16.367 43.863,33.763 62.534,53.708c18.541,19.759 33.633,43.871 43.416,69.7c0.83,2.171 4.092,10.425 7.35,19.434c92.975,-40.15 171.367,-105.496 227.638,-186.709c42.458,-61.32 72.317,-131.716 86.258,-207.045l0,-0.255c9.396,-50.704 11.442,-103.645 5.304,-157.487c-3.454,-30.563 -9.395,-60.233 -17.712,-88.817c-13.492,-46.737 -33.117,-90.537 -57.863,-130.691c-68.612,-111.45 -176.42,-194.45 -302.129,-232.175c-48.704,-14.709 -100.079,-22.563 -152.904,-22.559c-20.2,0 -40.621,1.146 -61.171,3.5Z" style="fill:url(#_Linear1);fill-rule:nonzero;"/><path d="M710.699,631.731l0,0.259c-13.942,75.325 -43.8,145.72 -86.259,207.041c-56.271,81.209 -134.662,146.559 -227.633,186.713c-3.263,-9.017 -6.521,-17.267 -7.354,-19.442c-6.779,-17.837 -16.05,-34.846 -27.367,-50.192c-4.925,-6.841 -10.292,-13.362 -16.05,-19.504c-18.671,-19.946 -40.092,-37.341 -62.533,-53.712c-16.625,-12.209 -33.825,-23.846 -50.9,-35.617c-3.325,-5.237 -6.646,-10.608 -10.167,-15.979c-33.504,-52.304 -73.596,-109.279 -110.492,-167.208c-16.75,-26.217 -32.8,-52.692 -47.316,-78.971c-8.821,-15.984 -17.009,-31.971 -24.488,-47.763c-20.208,-43.037 -34.591,-85.046 -39.133,-124.687c-2.813,-24.684 0.446,-49.492 7.608,-74.109c44.184,-151.608 238.567,-294.516 99.879,-333.012c0.255,-0.063 0.575,-0.063 0.83,-0.125c4.925,-0.704 9.85,-1.346 14.9,-1.921c74.3,-8.504 146.745,-1.279 214.079,19.054c125.708,37.729 233.512,120.725 302.125,232.175c24.746,40.154 44.375,83.954 57.866,130.696c8.313,28.583 14.259,58.254 17.713,88.817c6.137,53.841 4.092,106.783 -5.308,157.487" style="fill:#858585;fill-rule:nonzero;"/><path d="M558.837,631.731l0,0.259c-13.942,75.325 -43.8,145.72 -86.258,207.041c-30.63,44.25 -67.909,83.763 -110.492,117.079c-4.925,-6.841 -10.292,-13.362 -16.05,-19.504c-18.671,-19.946 -40.092,-37.341 -62.538,-53.712c-16.62,-12.209 -33.82,-23.846 -50.895,-35.617c-3.325,-5.237 -6.65,-10.608 -10.167,-15.979c-33.504,-52.304 -73.596,-109.279 -110.492,-167.208c-16.75,-26.217 -32.8,-52.692 -47.316,-78.971c-8.825,-15.984 -17.009,-31.971 -24.488,-47.763c-20.208,-43.037 -34.596,-85.046 -39.133,-124.687c-2.817,-24.684 0.446,-49.492 7.608,-74.109c44.183,-151.608 238.567,-294.516 99.875,-333.012c0.258,-0.063 0.579,-0.063 0.833,-0.125c26.28,3.833 52.05,9.587 77.117,17.133c125.708,37.729 233.513,120.725 302.121,232.175c24.746,40.154 44.379,83.954 57.871,130.696c8.312,28.583 14.258,58.254 17.708,88.817c6.142,53.841 4.096,106.783 -5.304,157.487" style="fill:#fff;fill-rule:nonzero;"/><path d="M629.365,864.992c-27.946,56.27 -175.825,163.245 -231.391,192.337c2.558,-1.279 -1.98,-15.533 -6.584,-28.196c-3.262,-9.021 -6.525,-17.266 -7.354,-19.437c-9.783,-25.838 -26.596,-51.625 -45.137,-71.379c-32.546,-34.721 -73.342,-61.775 -113.434,-89.33c-59.658,-41.116 -110.641,-85.15 -137.816,-155.425c-13.43,-34.72 -21.167,-71.487 -23.021,-108.441c-0.192,-4.029 -0.317,-8.059 -0.384,-12.084c-0.829,-51.733 9.913,-103.462 33.059,-149.945c8.825,-17.78 19.121,-34.913 31.458,-50.455c0.896,-1.145 1.921,-2.237 2.817,-3.32c-21.55,-25.45 -52.625,-39.58 -88.625,-38.109c-2.559,0.063 -5.117,0.254 -7.609,0.571c18.03,-14.321 40.538,-23.208 65.284,-24.233c20.912,-0.829 40.729,4.029 57.866,13.362c4.988,2.625 9.721,5.629 14.196,9.017c-12.787,36.383 -23.912,71.746 -18.991,110.621c1.279,9.912 3.262,19.825 5.95,29.479c3.579,13.3 8.566,26.217 14.704,38.429c5.754,11.508 12.725,22.379 20.654,32.354c18.992,23.788 45.208,48.788 71.104,64.963c111.196,69.25 321.308,104.483 358.329,233.262c2.367,8.246 4.029,16.879 4.925,25.959" style="fill:#3a3a3a;fill-rule:nonzero;"/><path d="M164.399,331.833c0.05,-0.038 0.096,-0.063 0.15,-0.096c-0.666,0.979 -1.133,2.033 -1.512,3.192c0,0 -71.175,169.462 115.537,252.35c-10.291,-17.409 -15.645,-38.234 -14.145,-61.109c3.075,-47.25 39.454,-85.666 86.125,-93.45l0.883,-0.15c2.629,-0.566 5.792,-1.029 9.45,-1.25c16.925,-1.137 31.229,-2.812 43.371,-5.033c16.491,-2.942 28.95,-6.771 38.233,-10.975c15.304,-6.962 23.342,-23.667 19.704,-40.046c-0.729,-3.183 -1.6,-6.475 -2.621,-9.866c-25.387,14.65 -60.712,10.804 -85.337,-3.6c-12.904,-7.546 -22.542,-19.467 -34.929,-27.896c-13.838,-9.417 -29.15,-16.65 -45.221,-21.334c-22.954,-6.691 -47.321,-8.075 -70.904,-4.137c-9.713,1.617 -19.067,4.129 -28.029,7.358c0.037,-0.012 0.07,-0.029 0.104,-0.041c-9.071,-12.375 -22.296,-21.788 -38.259,-25.896c-14.637,-3.767 -29.391,-2.521 -42.462,2.662c1.508,0.267 3.067,0.629 4.579,1.017c21.446,5.521 37.204,19.404 45.283,38.3" style="fill:#3a3a3a;fill-rule:nonzero;"/><path d="M672.83,195.556c0,0 45.775,166.587 -79.525,333.366c53.913,-51.445 122.554,-136.575 148.909,-292.545c26.354,-155.975 -69.384,-40.821 -69.384,-40.821" style="fill:#3a3a3a;fill-rule:nonzero;"/><g transform="matrix(4.16667,0,0,4.16667,-409.775,-472.915)"><text x="100.005px" y="364.831px" style="font-family:'Poppins-Bold', 'Poppins';font-weight:700;font-size:33.679px;fill:#fff;">F<tspan x="121.796px 151.635px 179.083px 189.59px 209.023px 238.862px 267.894px " y="364.831px 364.831px 364.831px 364.831px 364.831px 364.831px 364.831px ">OX LOGO</tspan></text><text x="131.724px" y="387.837px" style="font-family:'Poppins-Regular', 'Poppins';font-size:11.126px;fill:#858585;">L <tspan x="143.206px 151.95px 158.626px 165.39px 172.065px 177.773px 184.448px 194.027px 210.348px 213.085px 219.76px 226.202px 232.877px 239.408px 246.083px 253.593px 260.268px " y="387.837px 387.837px 387.837px 387.837px 387.837px 387.837px 387.837px 387.837px 387.837px 387.837px 387.837px 387.837px 387.837px 387.837px 387.837px 387.837px 387.837px ">O R E M I P S U M</tspan></text></g><defs><linearGradient id="_Linear1" x1="0" y1="0" x2="1" y2="0" gradientUnits="userSpaceOnUse" gradientTransform="matrix(-552.82,387.089,-387.089,-552.82,639.341,251.564)"><stop offset="0" style="stop-color:#fdd3a8;stop-opacity:1"/><stop offset="0.31" style="stop-color:#ff7022;stop-opacity:1"/><stop offset="1" style="stop-color:#fe5d00;stop-opacity:1"/></linearGradient></defs></svg>