<svg xmlns="http://www.w3.org/2000/svg" viewBox="0 0 203.65 94.56"><defs><style>.cls-1{opacity:0.6;}.cls-2,.cls-5{fill:none;stroke-miterlimit:10;}.cls-2{stroke:#fff;}.cls-3,.cls-4{font-size:72px;font-family:JadynMariaFree-Regular, Jadyn Maria Free;}.cls-3,.cls-6{fill:#fff;}.cls-4{fill:#fbb040;}.cls-5{stroke:#fbb040;}.cls-6{font-size:10px;font-family:AdobeClean-Regular, Adobe Clean;letter-spacing:0.4em;}.cls-7{letter-spacing:0.51em;}.cls-8{letter-spacing:0.51em;}.cls-9{letter-spacing:0.5em;}.cls-10{letter-spacing:0.51em;}.cls-11{letter-spacing:0.51em;}.cls-12{letter-spacing:0.5em;}.cls-13{letter-spacing:0.51em;}.cls-14{letter-spacing:0.5em;}.cls-15{letter-spacing:0.51em;}.cls-16{letter-spacing:0.53em;}</style></defs><title>logo-nazir-black</title><g id="Layer_2" data-name="Layer 2"><g id="Layer_4" data-name="Layer 4"><g id="leaf" class="cls-1"><path class="cls-2" d="M15.53,60.67c-.37.74-1.9,1.34-3.25,2.2a17.62,17.62,0,0,0-2,1.58,17.44,17.44,0,0,0,.43-2.53c.11-1.6-.08-3.23.38-3.9.68-1,3.41-.64,3.41-.64S16.07,59.61,15.53,60.67Z"/><polyline class="cls-2" points="15.02 56.47 13.82 58.46 10.29 64.33"/><path class="cls-2" d="M11.53,58.85a10.36,10.36,0,0,0,1.27-.08,8.66,8.66,0,0,0,1.09-.48"/><path class="cls-2" d="M11.47,60a2.62,2.62,0,0,0,.64-.07,9,9,0,0,0,1.09-.47"/><path class="cls-2" d="M11.42,61.08a8.66,8.66,0,0,0,1.09-.48"/><path class="cls-2" d="M14.54,60.65A9.35,9.35,0,0,1,14,59.49a8.18,8.18,0,0,1-.1-1.18"/><path class="cls-2" d="M13.57,61.24a3.28,3.28,0,0,1-.24-.6,8.69,8.69,0,0,1-.11-1.19"/><path class="cls-2" d="M12.63,61.8a10.11,10.11,0,0,1-.1-1.19"/><path class="cls-2" d="M7.79,61.45c-.65.51-2.29.42-3.87.64a17.84,17.84,0,0,0-2.49.6,18.24,18.24,0,0,0,1.44-2.12c.77-1.41,1.27-3,2-3.39,1-.61,3.36.83,3.36.83S8.72,60.71,7.79,61.45Z"/><polyline class="cls-2" points="9.07 57.41 7.16 58.73 1.5 62.59"/><path class="cls-2" d="M4.9,58.13a9.41,9.41,0,0,0,1.2.45,10,10,0,0,0,1.18,0"/><path class="cls-2" d="M4.38,59.13a2.7,2.7,0,0,0,.62.21,10,10,0,0,0,1.18,0"/><path class="cls-2" d="M3.88,60.1a8.7,8.7,0,0,0,1.19,0"/><path class="cls-2" d="M6.9,61a8.67,8.67,0,0,1,0-1.27,9,9,0,0,1,.4-1.12"/><path class="cls-2" d="M5.77,61.15a2.7,2.7,0,0,1,0-.65,9,9,0,0,1,.4-1.12"/><path class="cls-2" d="M4.69,61.27a8.8,8.8,0,0,1,.39-1.12"/><path class="cls-2" d="M24.77,59.73c-.47.91-2.38,1.67-4.06,2.74a22,22,0,0,0-2.53,2,21.69,21.69,0,0,0,.54-3.17c.14-2-.11-4,.48-4.88.84-1.23,4.25-.8,4.25-.8S25.45,58.4,24.77,59.73Z"/><polyline class="cls-2" points="24.13 54.47 22.64 56.96 18.22 64.3"/><path class="cls-2" d="M19.76,57.45a11.15,11.15,0,0,0,1.59-.11,12,12,0,0,0,1.37-.59"/><path class="cls-2" d="M19.69,58.86a3.75,3.75,0,0,0,.81-.08,11.67,11.67,0,0,0,1.36-.59"/><path class="cls-2" d="M19.63,60.23A11.67,11.67,0,0,0,21,59.64"/><path class="cls-2" d="M23.53,59.7a12.33,12.33,0,0,1-.66-1.45,10.44,10.44,0,0,1-.13-1.48"/><path class="cls-2" d="M22.32,60.43a3.37,3.37,0,0,1-.31-.75,12.23,12.23,0,0,1-.13-1.48"/><path class="cls-2" d="M21.15,61.13A10.44,10.44,0,0,1,21,59.65"/><path class="cls-2" d="M34.75,60.46c-.6,1.18-3.05,2.14-5.22,3.52a28.38,28.38,0,0,0-3.24,2.54A28.9,28.9,0,0,0,27,62.46c.19-2.56-.13-5.18.62-6.27,1.09-1.58,5.46-1,5.46-1S35.62,58.75,34.75,60.46Z"/><polyline class="cls-2" points="33.92 53.7 32.01 56.91 26.33 66.34"/><path class="cls-2" d="M28.32,57.54a15.76,15.76,0,0,0,2-.14,16,16,0,0,0,1.75-.76"/><path class="cls-2" d="M28.22,59.35a4.75,4.75,0,0,0,1-.11A14.26,14.26,0,0,0,31,58.48"/><path class="cls-2" d="M28.15,61.11a16,16,0,0,0,1.75-.76"/><path class="cls-2" d="M33.16,60.42a15.79,15.79,0,0,1-.85-1.86,13.37,13.37,0,0,1-.17-1.9"/><path class="cls-2" d="M31.61,61.36a4.33,4.33,0,0,1-.4-1A14.94,14.94,0,0,1,31,58.5"/><path class="cls-2" d="M30.1,62.27a13.37,13.37,0,0,1-.17-1.9"/><path class="cls-2" d="M44.61,61.58c-.68,1.34-3.47,2.44-5.94,4A32.07,32.07,0,0,0,35,68.48a31.29,31.29,0,0,0,.78-4.63c.21-2.91-.15-5.89.7-7.13,1.24-1.8,6.22-1.17,6.22-1.17S45.6,59.63,44.61,61.58Z"/><polyline class="cls-2" points="43.67 53.89 41.49 57.53 35.03 68.27"/><path class="cls-2" d="M37.29,58.25a17.47,17.47,0,0,0,2.33-.16,17.43,17.43,0,0,0,2-.86"/><path class="cls-2" d="M37.18,60.31a5.06,5.06,0,0,0,1.19-.12,17.43,17.43,0,0,0,2-.86"/><path class="cls-2" d="M37.1,62.31a15.14,15.14,0,0,0,2-.86"/><path class="cls-2" d="M42.8,61.53a17.37,17.37,0,0,1-1-2.12,16.15,16.15,0,0,1-.19-2.16"/><path class="cls-2" d="M41,62.61a5,5,0,0,1-.46-1.1,16.15,16.15,0,0,1-.19-2.16"/><path class="cls-2" d="M39.32,63.63a16.15,16.15,0,0,1-.19-2.16"/><path class="cls-2" d="M15.53,52.12c-.37-.73-1.9-1.33-3.25-2.19a18.93,18.93,0,0,1-2-1.58,17.44,17.44,0,0,1,.43,2.53c.11,1.59-.08,3.22.38,3.9.68,1,3.41.64,3.41.64S16.07,53.19,15.53,52.12Z"/><polyline class="cls-2" points="15.02 56.33 13.82 54.33 10.29 48.46"/><path class="cls-2" d="M11.53,53.94A9,9,0,0,1,12.8,54a9,9,0,0,1,1.09.47"/><path class="cls-2" d="M11.47,52.81a2.62,2.62,0,0,1,.64.07,9,9,0,0,1,1.09.47"/><path class="cls-2" d="M11.42,51.72a9,9,0,0,1,1.09.47"/><path class="cls-2" d="M14.54,52.15A9.35,9.35,0,0,0,14,53.31a8.08,8.08,0,0,0-.1,1.18"/><path class="cls-2" d="M13.57,51.56a3,3,0,0,0-.24.6,8.45,8.45,0,0,0-.11,1.18"/><path class="cls-2" d="M12.63,51a9.82,9.82,0,0,0-.1,1.18"/><path class="cls-2" d="M24.77,50.07c-.47-.92-2.38-1.67-4.06-2.75a21.24,21.24,0,0,1-2.53-2,21.43,21.43,0,0,1,.54,3.16c.14,2-.11,4,.48,4.88.84,1.23,4.25.8,4.25.8S25.45,51.4,24.77,50.07Z"/><polyline class="cls-2" points="24.13 55.33 22.64 52.83 18.22 45.49"/><path class="cls-2" d="M19.76,52.34a12.9,12.9,0,0,1,1.59.11,12,12,0,0,1,1.37.59"/><path class="cls-2" d="M19.69,50.93a3.42,3.42,0,0,1,.81.09,10.14,10.14,0,0,1,1.36.59"/><path class="cls-2" d="M19.63,49.56a11.67,11.67,0,0,1,1.36.59"/><path class="cls-2" d="M23.53,50.1a11.59,11.59,0,0,0-.66,1.45A10.44,10.44,0,0,0,22.74,53"/><path class="cls-2" d="M22.32,49.36a3.64,3.64,0,0,0-.31.75,12.23,12.23,0,0,0-.13,1.48"/><path class="cls-2" d="M21.15,48.66A10.44,10.44,0,0,0,21,50.14"/><path class="cls-2" d="M34.75,47.34c-.6-1.18-3.05-2.15-5.22-3.53a28.38,28.38,0,0,1-3.24-2.54A28.9,28.9,0,0,1,27,45.33c.19,2.57-.13,5.18.62,6.27,1.09,1.58,5.46,1,5.46,1S35.62,49.05,34.75,47.34Z"/><polyline class="cls-2" points="33.92 54.09 32.01 50.89 26.33 41.46"/><path class="cls-2" d="M28.32,50.26a15.76,15.76,0,0,1,2,.14,14.26,14.26,0,0,1,1.75.76"/><path class="cls-2" d="M28.22,48.45a4.42,4.42,0,0,1,1,.1,16,16,0,0,1,1.75.76"/><path class="cls-2" d="M28.15,46.69a14.26,14.26,0,0,1,1.75.76"/><path class="cls-2" d="M33.16,47.37a15.35,15.35,0,0,0-.85,1.87,13.26,13.26,0,0,0-.17,1.9"/><path class="cls-2" d="M31.61,46.43a4.59,4.59,0,0,0-.4,1,14.94,14.94,0,0,0-.17,1.9"/><path class="cls-2" d="M30.1,45.53a13.26,13.26,0,0,0-.17,1.9"/><path class="cls-2" d="M44.61,46.22c-.68-1.34-3.47-2.45-5.94-4A33.33,33.33,0,0,1,35,39.32a31,31,0,0,1,.78,4.62c.21,2.91-.15,5.89.7,7.13,1.24,1.8,6.22,1.17,6.22,1.17S45.6,48.16,44.61,46.22Z"/><polyline class="cls-2" points="43.67 53.9 41.49 50.26 35.03 39.53"/><path class="cls-2" d="M37.29,49.54a17.47,17.47,0,0,1,2.33.16,17.43,17.43,0,0,1,2,.86"/><path class="cls-2" d="M37.18,47.48a5.06,5.06,0,0,1,1.19.12,17.43,17.43,0,0,1,2,.86"/><path class="cls-2" d="M37.1,45.48a16.65,16.65,0,0,1,2,.86"/><path class="cls-2" d="M42.8,46.26a18.14,18.14,0,0,0-1,2.12,16.28,16.28,0,0,0-.19,2.16"/><path class="cls-2" d="M41,45.19a5.11,5.11,0,0,0-.46,1.09,16.28,16.28,0,0,0-.19,2.16"/><path class="cls-2" d="M39.32,44.16a16.15,16.15,0,0,0-.19,2.16"/><path class="cls-2" d="M8.48,57.71s30.85-9,56.25,0,48.21,0,48.21,0"/></g><g id="leaf-2" data-name="leaf" class="cls-1"><path class="cls-2" d="M188.12,60.67c.37.74,1.9,1.34,3.25,2.2a17.62,17.62,0,0,1,2,1.58,17.44,17.44,0,0,1-.43-2.53c-.12-1.6.08-3.23-.39-3.9-.67-1-3.4-.64-3.4-.64S187.57,59.61,188.12,60.67Z"/><polyline class="cls-2" points="188.63 56.47 189.82 58.46 193.36 64.33"/><path class="cls-2" d="M192.12,58.85a10.36,10.36,0,0,1-1.27-.08,8.66,8.66,0,0,1-1.09-.48"/><path class="cls-2" d="M192.18,60a2.68,2.68,0,0,1-.65-.07,9.76,9.76,0,0,1-1.09-.47"/><path class="cls-2" d="M192.23,61.08a8.66,8.66,0,0,1-1.09-.48"/><path class="cls-2" d="M189.11,60.65a9.35,9.35,0,0,0,.53-1.16,10,10,0,0,0,.1-1.18"/><path class="cls-2" d="M190.07,61.24a3,3,0,0,0,.25-.6,8.69,8.69,0,0,0,.11-1.19"/><path class="cls-2" d="M191,61.8a8.69,8.69,0,0,0,.11-1.19"/><path class="cls-2" d="M195.86,61.45c.64.51,2.28.42,3.87.64a17.84,17.84,0,0,1,2.49.6,18.24,18.24,0,0,1-1.44-2.12c-.77-1.41-1.27-3-2-3.39-1-.61-3.36.83-3.36.83S194.92,60.71,195.86,61.45Z"/><polyline class="cls-2" points="194.58 57.41 196.49 58.73 202.15 62.59"/><path class="cls-2" d="M198.74,58.13a9.75,9.75,0,0,1-1.19.45,10.12,10.12,0,0,1-1.19,0"/><path class="cls-2" d="M199.27,59.13a2.93,2.93,0,0,1-.62.21,10.12,10.12,0,0,1-1.19,0"/><path class="cls-2" d="M199.76,60.1a8.54,8.54,0,0,1-1.18,0"/><path class="cls-2" d="M196.75,61a10.4,10.4,0,0,0,0-1.27,9,9,0,0,0-.4-1.12"/><path class="cls-2" d="M197.87,61.15a3,3,0,0,0,0-.65,9,9,0,0,0-.4-1.12"/><path class="cls-2" d="M199,61.27a8.46,8.46,0,0,0-.4-1.12"/><path class="cls-2" d="M178.88,59.73c.47.91,2.37,1.67,4.06,2.74a22,22,0,0,1,2.53,2,21.69,21.69,0,0,1-.54-3.17c-.14-2,.1-4-.48-4.88-.85-1.23-4.25-.8-4.25-.8S178.2,58.4,178.88,59.73Z"/><polyline class="cls-2" points="179.52 54.47 181.01 56.96 185.43 64.3"/><path class="cls-2" d="M183.89,57.45a11.15,11.15,0,0,1-1.59-.11,11.24,11.24,0,0,1-1.37-.59"/><path class="cls-2" d="M184,58.86a3.75,3.75,0,0,1-.81-.08,11.67,11.67,0,0,1-1.36-.59"/><path class="cls-2" d="M184,60.23a12,12,0,0,1-1.37-.59"/><path class="cls-2" d="M180.12,59.7a12.33,12.33,0,0,0,.66-1.45,12.23,12.23,0,0,0,.13-1.48"/><path class="cls-2" d="M181.32,60.43a3.7,3.7,0,0,0,.32-.75,11.72,11.72,0,0,0,.12-1.48"/><path class="cls-2" d="M182.5,61.13a12.23,12.23,0,0,0,.13-1.48"/><path class="cls-2" d="M168.9,60.46c.6,1.18,3,2.14,5.22,3.52a28.38,28.38,0,0,1,3.24,2.54,28.22,28.22,0,0,1-.69-4.06c-.18-2.56.14-5.18-.61-6.27-1.09-1.58-5.47-1-5.47-1S168,58.75,168.9,60.46Z"/><polyline class="cls-2" points="169.72 53.7 171.64 56.91 177.32 66.34"/><path class="cls-2" d="M175.33,57.54a15.76,15.76,0,0,1-2-.14,16,16,0,0,1-1.75-.76"/><path class="cls-2" d="M175.43,59.35a4.75,4.75,0,0,1-1-.11,13.58,13.58,0,0,1-1.75-.76"/><path class="cls-2" d="M175.5,61.11a16,16,0,0,1-1.75-.76"/><path class="cls-2" d="M170.49,60.42a15.79,15.79,0,0,0,.85-1.86,15.09,15.09,0,0,0,.17-1.9"/><path class="cls-2" d="M172,61.36a4.33,4.33,0,0,0,.4-1,14.94,14.94,0,0,0,.17-1.9"/><path class="cls-2" d="M173.55,62.27a15.09,15.09,0,0,0,.17-1.9"/><path class="cls-2" d="M159,61.58c.69,1.34,3.48,2.44,5.94,4a31.63,31.63,0,0,1,3.7,2.89,32.15,32.15,0,0,1-.79-4.63c-.2-2.91.15-5.89-.7-7.13-1.24-1.8-6.21-1.17-6.21-1.17S158,59.63,159,61.58Z"/><polyline class="cls-2" points="159.98 53.89 162.16 57.53 168.62 68.27"/><path class="cls-2" d="M166.36,58.25a17.47,17.47,0,0,1-2.33-.16,16.65,16.65,0,0,1-2-.86"/><path class="cls-2" d="M166.46,60.31a5,5,0,0,1-1.18-.12,17.43,17.43,0,0,1-2-.86"/><path class="cls-2" d="M166.55,62.31a15.42,15.42,0,0,1-2-.86"/><path class="cls-2" d="M160.85,61.53a17.37,17.37,0,0,0,1-2.12,18.06,18.06,0,0,0,.19-2.16"/><path class="cls-2" d="M162.61,62.61a5,5,0,0,0,.46-1.1,18.06,18.06,0,0,0,.19-2.16"/><path class="cls-2" d="M164.33,63.63a16.15,16.15,0,0,0,.19-2.16"/><path class="cls-2" d="M188.12,52.12c.37-.73,1.9-1.33,3.25-2.19a18.93,18.93,0,0,0,2-1.58,17.44,17.44,0,0,0-.43,2.53c-.12,1.59.08,3.22-.39,3.9-.67,1-3.4.64-3.4.64S187.57,53.19,188.12,52.12Z"/><polyline class="cls-2" points="188.63 56.33 189.82 54.33 193.36 48.46"/><path class="cls-2" d="M192.12,53.94a3.67,3.67,0,0,0-2.36.56"/><path class="cls-2" d="M192.18,52.81a2.68,2.68,0,0,0-.65.07,9.76,9.76,0,0,0-1.09.47"/><path class="cls-2" d="M192.23,51.72a9,9,0,0,0-1.09.47"/><path class="cls-2" d="M189.11,52.15a9.35,9.35,0,0,1,.53,1.16,9.82,9.82,0,0,1,.1,1.18"/><path class="cls-2" d="M190.07,51.56a2.7,2.7,0,0,1,.25.6,8.45,8.45,0,0,1,.11,1.18"/><path class="cls-2" d="M191,51a8.45,8.45,0,0,1,.11,1.18"/><path class="cls-2" d="M178.88,50.07c.47-.92,2.37-1.67,4.06-2.75a21.24,21.24,0,0,0,2.53-2,21.43,21.43,0,0,0-.54,3.16c-.14,2,.1,4-.48,4.88-.85,1.23-4.25.8-4.25.8S178.2,51.4,178.88,50.07Z"/><polyline class="cls-2" points="179.52 55.33 181.01 52.83 185.43 45.49"/><path class="cls-2" d="M183.89,52.34a12.9,12.9,0,0,0-1.59.11,11.24,11.24,0,0,0-1.37.59"/><path class="cls-2" d="M184,50.93a3.42,3.42,0,0,0-.81.09,10.14,10.14,0,0,0-1.36.59"/><path class="cls-2" d="M184,49.56a12,12,0,0,0-1.37.59"/><path class="cls-2" d="M180.12,50.1a11.59,11.59,0,0,1,.66,1.45,12.23,12.23,0,0,1,.13,1.48"/><path class="cls-2" d="M181.32,49.36a4,4,0,0,1,.32.75,11.72,11.72,0,0,1,.12,1.48"/><path class="cls-2" d="M182.5,48.66a12.23,12.23,0,0,1,.13,1.48"/><path class="cls-2" d="M168.9,47.34c.6-1.18,3-2.15,5.22-3.53a28.38,28.38,0,0,0,3.24-2.54,28.22,28.22,0,0,0-.69,4.06c-.18,2.57.14,5.18-.61,6.27-1.09,1.58-5.47,1-5.47,1S168,49.05,168.9,47.34Z"/><polyline class="cls-2" points="169.72 54.09 171.64 50.89 177.32 41.46"/><path class="cls-2" d="M175.33,50.26a15.76,15.76,0,0,0-2,.14,14.26,14.26,0,0,0-1.75.76"/><path class="cls-2" d="M175.43,48.45a4.42,4.42,0,0,0-1,.1,15.18,15.18,0,0,0-1.75.76"/><path class="cls-2" d="M175.5,46.69a14.26,14.26,0,0,0-1.75.76"/><path class="cls-2" d="M170.49,47.37a15.35,15.35,0,0,1,.85,1.87,14.94,14.94,0,0,1,.17,1.9"/><path class="cls-2" d="M172,46.43a4.59,4.59,0,0,1,.4,1,14.94,14.94,0,0,1,.17,1.9"/><path class="cls-2" d="M173.55,45.53a14.94,14.94,0,0,1,.17,1.9"/><path class="cls-2" d="M159,46.22c.69-1.34,3.48-2.45,5.94-4a32.85,32.85,0,0,0,3.7-2.89,31.88,31.88,0,0,0-.79,4.62c-.2,2.91.15,5.89-.7,7.13-1.24,1.8-6.21,1.17-6.21,1.17S158,48.16,159,46.22Z"/><polyline class="cls-2" points="159.98 53.9 162.16 50.26 168.62 39.53"/><path class="cls-2" d="M166.36,49.54a17.47,17.47,0,0,0-2.33.16,16.65,16.65,0,0,0-2,.86"/><path class="cls-2" d="M166.46,47.48a5,5,0,0,0-1.18.12,17.43,17.43,0,0,0-2,.86"/><path class="cls-2" d="M166.55,45.48a17,17,0,0,0-2,.86"/><path class="cls-2" d="M160.85,46.26a18.14,18.14,0,0,1,1,2.12,18.23,18.23,0,0,1,.19,2.16"/><path class="cls-2" d="M162.61,45.19a5.11,5.11,0,0,1,.46,1.09,18.23,18.23,0,0,1,.19,2.16"/><path class="cls-2" d="M164.33,44.16a16.15,16.15,0,0,1,.19,2.16"/><path class="cls-2" d="M195.17,57.71s-30.86-9-56.25,0-48.21,0-48.21,0"/></g><text class="cls-3" transform="translate(7.25 64.54)">Nazir</text><text class="cls-4" transform="translate(7.25 63.54)">Nazir</text><line class="cls-5" x1="36.71" y1="61.29" x2="166.57" y2="61.29"/><text class="cls-6" transform="translate(41.54 71.58)">T<tspan class="cls-7" x="9.22" y="0">e</tspan><tspan class="cls-8" x="19.13" y="0">c</tspan><tspan class="cls-9" x="28.39" y="0">h </tspan><tspan class="cls-10" x="46.06" y="0">A</tspan><tspan class="cls-11" x="56.98" y="0">r</tspan><tspan class="cls-8" x="65.24" y="0">c</tspan><tspan class="cls-12" x="74.5" y="0">h</tspan><tspan class="cls-13" x="84.86" y="0">i</tspan><tspan class="cls-14" x="92.19" y="0">t</tspan><tspan class="cls-15" x="100.12" y="0">e</tspan><tspan class="cls-16" x="110.03" y="0">c</tspan><tspan class="cls-12" x="119.52" y="0">t</tspan></text></g></g></svg>