<svg xmlns="http://www.w3.org/2000/svg" viewBox="0 0 1316 1140.44"><defs><style>.cls-1{fill:#fcee21;opacity:0.4;}.cls-2{fill:none;stroke:#000;stroke-miterlimit:10;}.cls-3{fill:gray;}.cls-4{fill:#333;}.cls-5{fill:#1a1a1a;}</style></defs><title>logo-transform</title><g id="Layer_2" data-name="Layer 2"><g id="Layer_2-2" data-name="Layer 2"><polygon class="cls-1" points="1081.5 528.31 1013.2 434.61 693.87 559.7 1081.5 528.31"/><polygon class="cls-1" points="1069.26 649.3 1081.1 535.01 690.51 561.07 1069.26 649.3"/><line class="cls-2" x1="331.3" y1="1140.19" x2="988.87" y2="0.25"/><line class="cls-2" x1="331.3" y1="1140.19" x2="988.87" y2="0.25"/><path d="M665.74,882.46a125.33,125.33,0,0,1,30.38-17.53c11.48-4.62,23.57-7.13,35.69-9.4,17.14-3.21,34.66-3.83,51.77-7.26,16-3.2,32.75-9.29,41.74-23.83,4.65-7.53,7-16.38,8.34-25.06a162.66,162.66,0,0,0,1.47-30c-.59-19.94-3.5-39.67-5.72-59.46-.24-2.06-.46-4.11-.66-6.17s2.81-1.93,3,0c1.92,19.56,5,39,6.08,58.63a199.19,199.19,0,0,1-.37,30.8c-.93,9.19-2.74,18.37-6.47,26.86a46.11,46.11,0,0,1-15.61,19.14c-6.82,4.85-14.78,7.94-22.81,10.1-17,4.58-34.67,5.19-52,7.79-5.06.75-10.08,1.74-15.1,2.74-6.25,1.25-12.49,2.66-18.59,4.52a121.28,121.28,0,0,0-31.94,15.15q-3.63,2.44-7.1,5.13c-1.5,1.18-3.63-.94-2.1-2.13Z" transform="translate(0 -30.89)"/><path class="cls-3" d="M1095.18,856.35c-.78-24.42.57-48.94,1.3-73.34,1.13-37.4,2-74.81,2-112.23-.14-78.64-5.72-157.07-13.91-235.26-2.7-25.76-5.78-51.48-8.83-77.2-.75-6.4,9.26-6.38,10-.06,6.84,57.67,13.23,115.37,17.43,173.3,5.78,79.71,6,159.38,3.7,239.23-.82,28.44-2.57,57.05-1.66,85.5.2,6.45-9.8,6.48-10,.06Z" transform="translate(0 -30.89)"/><path class="cls-4" d="M676.86,591.05c21,9.81,41.15,21.56,61.27,33,27.27,15.55,54.38,31.39,81.65,46.95,26.62,15.2,53.34,30.27,80.64,44.22q4.35,2.22,8.73,4.4c.87.44,4.84,2.27,1.81,1a39.21,39.21,0,0,0,5.7,1.88c.76.18,1.58.24,2.32.46,2,.59-2.61.15-.71-.11,1.28-.18,2.67,0,4-.12s2.4-.38,3.6-.61c3-.58-2.5,1,.95-.3,4.77-1.74,9.78-3.9,14.89-4.17,7.7-.41,14.7,3.19,20.88,7.38,18.1,12.26,32.7,28.46,47.45,44.4l4.55,4.91c2.74,3,0,.07-.43-.46,1,1.28,2.32,2.47,3.44,3.65,3.44,3.63,6.92,7.21,10.5,10.7s7.06,6.73,10.77,9.91c2,1.72,4.07,3.36,6.14,5,.78.62,2.62,2.51-.38-.25a30.7,30.7,0,0,0,3.79,2.61c8.82,5.91,16.63,17.36,15.77,28.45-.71,9.13-8.11,15.11-16.79,9.3-15.89-10.64-29.45-23.8-42.48-37.71-4-4.22-7.9-8.47-11.84-12.73-1-1.05-5.46-6-1.79-1.94-1.66-1.81-3.36-3.59-5.06-5.37a254.49,254.49,0,0,0-18.54-17.89c-1.49-1.27-3-2.48-4.53-3.71-1-.81-2.11-2.44.7.48a16,16,0,0,0-2.29-1.6c-1.49-1-3.11-1.88-4.59-2.91-.58-.41-2.1-.84.41.06,3.11,1.13.21,0-.32,0-3.8.21,2.64-.58.2,0-.88.2-2,.2-2.89.31-3.46.41,2-.87,0,0-1.2.49-2.46.88-3.69,1.32-5.32,1.9-10.91,3.79-16.63,3.65-9.28-.23-17.11-3.47-25.33-7.54-55.48-27.49-108.57-59.74-162.25-90.52-23.17-13.29-46.33-27-70.56-38.35-4.6-2.14-9-8.07-11.36-12.29-2.48-4.47-4.82-10.9-4.41-16.16.31-4,1.27-8.4,5.12-10.54s8-.45,11.66,1.24Z" transform="translate(0 -30.89)"/><path class="cls-5" d="M715.59,586.14l62.9,36.31,100.26,57.89,23,13.3c4,2.31,7.11,7.72,6.85,12.37-.23,4.25-3.51,6.23-7.29,4l-62.9-36.31L738.19,615.85l-23-13.3c-4-2.3-7.11-7.72-6.85-12.36.23-4.26,3.51-6.23,7.29-4.05Z" transform="translate(0 -30.89)"/><path class="cls-5" d="M935.53,697.06,837,640.14l-14-8.08c-3.45-2,3.28-6.48,4.68-7.32,2.87-1.71,9.33-5.08,12.82-3.06L939,678.59l14,8.09c3.45,2-3.28,6.48-4.68,7.31-2.87,1.71-9.33,5.08-12.82,3.07Z" transform="translate(0 -30.89)"/><path class="cls-5" d="M788.48,672.73l120.44-58.68,16.77-8.17-7.16,8.62L820,557.58l-14-8.08c-3.45-2,3.28-6.48,4.68-7.32,2.87-1.71,9.33-5.08,12.82-3.06L922,596l14,8.09c4.18,2.41-6.08,8.09-7.15,8.61L808.44,671.42l-16.76,8.17c-2,1-9.62,4.22-11.12,1s6.22-7,7.92-7.87Z" transform="translate(0 -30.89)"/><path d="M797.14,614.61,835,603l-6.4,7.65-61.36-7.72c-5.75-.72,5.07-7.24,6.4-7.65l37.88-11.61c1.6-.49,6.52-2.15,6.56.85,0,2.68-6.22,5.41-8.07,6l-37.88,11.61,6.4-7.65,61.37,7.72c5.74.72-5.07,7.24-6.4,7.65l-37.89,11.61c-1.6.49-6.51,2.15-6.56-.85,0-2.68,6.23-5.41,8.07-6Z" transform="translate(0 -30.89)"/><polygon class="cls-1" points="834.5 956.13 719.2 943.83 667.87 604.74 834.5 956.13"/><polygon class="cls-1" points="933.16 885.04 840.1 952.43 667.37 601.14 933.16 885.04"/><line class="cls-2" x1="989.3" y1="0.5" x2="330.87" y2="1139.94"/><line class="cls-2" x1="989.3" y1="0.5" x2="330.87" y2="1139.94"/><path d="M906.57,465.33a124.92,124.92,0,0,0,0,35.08c1.74,12.25,5.6,24,9.7,35.6,5.79,16.46,14,31.94,19.6,48.47,5.22,15.43,8.33,33,.23,48.06-4.19,7.8-10.69,14.24-17.53,19.75a163,163,0,0,1-25.25,16.28c-17.56,9.45-36.1,16.81-54.35,24.77q-2.85,1.24-5.68,2.52c-1.76.8-.25,3.4,1.49,2.61,17.9-8.12,36.27-15.16,53.82-24.05a198.34,198.34,0,0,0,26.48-15.73c7.49-5.4,14.54-11.55,20-19a46.09,46.09,0,0,0,8.77-23.09c.79-8.33-.52-16.76-2.66-24.81-4.53-17-12.84-32.61-19.26-48.91-1.87-4.76-3.52-9.61-5.17-14.46-2-6-3.94-12.14-5.38-18.36a121.27,121.27,0,0,1-2.85-35.23c.2-2.91.49-5.82.9-8.71.26-1.89-2.64-2.67-2.9-.76Z" transform="translate(0 -30.89)"/><path class="cls-3" d="M1098.67,850.29c-21.53,11.53-42.09,25-62.86,37.8C1004,907.77,972,927.26,939.6,945.91c-68.18,39.2-138.88,73.58-210.69,105.58-23.66,10.54-47.47,20.74-71.28,31-5.91,2.54-.89,11.2,5,8.69,53.36-22.92,106.52-46.23,158.79-71.55,71.92-34.85,141-74.49,209-116.42,24.22-14.93,48.12-30.75,73.22-44.19,5.69-3.05.71-11.72-5-8.69Z" transform="translate(0 -30.89)"/><path class="cls-4" d="M659.76,620.67C678.76,634,699,645.53,719,657.22c27.11,15.84,54.38,31.4,81.49,47.23,26.47,15.45,52.88,31.06,78.61,47.72q4.11,2.66,8.18,5.36c.81.54,4.38,3.06,1.78,1.06a38.67,38.67,0,0,1,4.48,4c.54.57,1,1.24,1.56,1.78,1.5,1.41-1.18-2.34-.45-.55.48,1.18,1.35,2.3,1.88,3.49s.87,2.26,1.27,3.42c1,2.92-.41-2.65.22,1,.87,5,1.51,10.42,3.83,15,3.5,6.87,10.11,11.13,16.83,14.39,19.67,9.54,41,14.09,62.18,18.89l6.53,1.48c3.93.9.06,0-.62-.14,1.61.23,3.31.78,4.89,1.16,4.86,1.16,9.7,2.39,14.51,3.74s9.36,2.75,14,4.37c2.49.88,4.94,1.84,7.4,2.81.93.37,3.49,1-.41-.19a30.41,30.41,0,0,1,4.16,2c9.52,4.68,23.35,5.72,32.52-.57,7.55-5.17,9-14.58-.34-19.19-17.16-8.44-35.34-13.6-53.9-17.94q-8.46-2-16.94-3.88c-1.39-.31-7.89-1.75-2.57-.58-2.4-.53-4.8-1.11-7.18-1.7a250,250,0,0,1-24.77-7.11c-1.84-.65-3.66-1.36-5.48-2.07-1.2-.47-3.17-.6.77.37a15,15,0,0,1-2.53-1.18c-1.63-.79-3.18-1.76-4.82-2.52-.64-.3-1.78-1.4.26.32,2.53,2.13.09.19-.15-.28-1.72-3.4.82,2.58.08.18a27.19,27.19,0,0,0-1.17-2.66c-1.38-3.2.25,2.17-.06,0-.18-1.28-.47-2.57-.7-3.85-1-5.56-2.17-11.35-5.16-16.23-4.83-7.93-11.56-13.08-19.19-18.16-51.55-34.31-106-64.16-159.52-95.26-23.09-13.42-46.58-26.61-68.49-41.94-4.16-2.9-11.5-3.77-16.33-3.69-5.1.09-11.85,1.28-16.19,4.26-3.31,2.27-6.65,5.31-6.57,9.71s3.63,7.19,6.9,9.48Z" transform="translate(0 -30.89)"/><path class="cls-5" d="M674.88,656.67,737.77,693,838,750.87l23,13.3c4,2.3,10.25,2.29,14.14-.25,3.57-2.33,3.64-6.16-.15-8.34l-62.89-36.32L711.9,661.38l-23-13.3c-4-2.31-10.25-2.3-14.14.24-3.57,2.33-3.64,6.16.15,8.35Z" transform="translate(0 -30.89)"/><path class="cls-5" d="M880.9,791.68l-98.58-56.91-14-8.09c-3.45-2-4,6.08-4,7.71,0,3.34.27,10.62,3.76,12.64l98.57,56.91,14,8.09c3.45,2,4-6.09,4-7.71.05-3.35-.26-10.63-3.75-12.64Z" transform="translate(0 -30.89)"/><path class="cls-5" d="M786.31,676.49l9.4,133.65,1.31,18.6,3.88-10.5-98.57-56.91-14-8.09c-3.45-2-4,6.08-4,7.71-.05,3.34.26,10.62,3.75,12.64l98.58,56.91,14,8.09c4.18,2.41,4-9.33,3.89-10.51l-9.4-133.64-1.31-18.6c-.15-2.22-1.15-10.44-4.68-10.14s-3,8.91-2.85,10.79Z" transform="translate(0 -30.89)"/><path d="M740.31,713.05l8.88,38.62,3.42-9.37L715.25,693c-3.5-4.61-3.74,8-3.43,9.37L720.71,741c.37,1.63,1.39,6.72,4,5.25,2.35-1.3,1.58-8.1,1.15-10L717,697.66,713.56,707l37.36,49.28c3.5,4.62,3.74-8,3.43-9.36l-8.88-38.62c-.38-1.63-1.4-6.72-4-5.26-2.35,1.31-1.58,8.1-1.14,10Z" transform="translate(0 -30.89)"/><polygon class="cls-1" points="481.5 956.13 596.8 943.83 648.13 604.74 481.5 956.13"/><polygon class="cls-1" points="382.84 885.04 475.91 952.43 648.63 601.14 382.84 885.04"/><line class="cls-2" x1="326.7" y1="0.5" x2="985.13" y2="1139.94"/><line class="cls-2" x1="326.7" y1="0.5" x2="985.13" y2="1139.94"/><path d="M409.43,465.33a124.92,124.92,0,0,1,0,35.08c-1.74,12.25-5.6,24-9.7,35.6-5.79,16.46-14,31.94-19.6,48.47-5.22,15.43-8.33,33-.23,48.06,4.19,7.8,10.69,14.24,17.53,19.75a163,163,0,0,0,25.25,16.28c17.56,9.45,36.1,16.81,54.35,24.77q2.85,1.24,5.68,2.52c1.76.8.25,3.4-1.49,2.61-17.9-8.12-36.27-15.16-53.82-24.05a199,199,0,0,1-26.48-15.73c-7.49-5.4-14.54-11.55-20-19a46.09,46.09,0,0,1-8.77-23.09c-.79-8.33.52-16.76,2.66-24.81,4.53-17,12.84-32.61,19.26-48.91,1.87-4.76,3.53-9.61,5.17-14.46,2-6,3.94-12.14,5.38-18.36a121.27,121.27,0,0,0,2.85-35.23c-.2-2.91-.49-5.82-.9-8.71-.26-1.89,2.64-2.67,2.9-.76Z" transform="translate(0 -30.89)"/><path class="cls-3" d="M217.33,850.29c21.53,11.53,42.09,25,62.86,37.8C312,907.77,344,927.26,376.4,945.91c68.18,39.2,138.89,73.58,210.69,105.58,23.66,10.54,47.47,20.74,71.28,31,5.91,2.54.89,11.2-5,8.69-53.36-22.92-106.52-46.23-158.79-71.55-71.92-34.85-141-74.49-209-116.42-24.22-14.93-48.12-30.75-73.22-44.19-5.69-3.05-.71-11.72,5-8.69Z" transform="translate(0 -30.89)"/><path class="cls-4" d="M656.24,620.67C637.24,634,617,645.53,597,657.22c-27.11,15.84-54.37,31.4-81.49,47.23C489,719.9,462.63,735.51,436.9,752.17q-4.11,2.66-8.18,5.36c-.81.54-4.38,3.06-1.78,1.06a38.67,38.67,0,0,0-4.48,4c-.54.57-1,1.24-1.56,1.78-1.5,1.41,1.18-2.34.45-.55-.48,1.18-1.35,2.3-1.88,3.49s-.87,2.26-1.27,3.42c-1,2.92.41-2.65-.22,1-.87,5-1.51,10.42-3.83,15-3.5,6.87-10.11,11.13-16.83,14.39-19.67,9.54-41,14.09-62.18,18.89l-6.52,1.48c-3.94.9-.07,0,.61-.14-1.61.23-3.31.78-4.89,1.16-4.86,1.16-9.7,2.39-14.51,3.74s-9.36,2.75-14,4.37c-2.49.88-4.94,1.84-7.4,2.81-.93.37-3.48,1,.41-.19a30.41,30.41,0,0,0-4.16,2c-9.52,4.68-23.35,5.72-32.52-.57-7.55-5.17-9-14.58.34-19.19,17.16-8.44,35.34-13.6,53.9-17.94q8.46-2,16.94-3.88c1.39-.31,7.89-1.75,2.57-.58,2.41-.53,4.8-1.11,7.18-1.7a250,250,0,0,0,24.77-7.11c1.84-.65,3.66-1.36,5.48-2.07,1.2-.47,3.17-.6-.77.37a15,15,0,0,0,2.53-1.18c1.63-.79,3.18-1.76,4.82-2.52.64-.3,1.78-1.4-.26.32-2.53,2.13-.09.19.15-.28,1.72-3.4-.82,2.58-.08.18a27.19,27.19,0,0,1,1.17-2.66c1.38-3.2-.25,2.17.06,0,.18-1.28.47-2.57.7-3.85,1-5.56,2.18-11.35,5.16-16.23,4.84-7.93,11.56-13.08,19.19-18.16,51.55-34.31,106-64.16,159.52-95.26,23.09-13.42,46.58-26.61,68.49-41.94,4.16-2.9,11.5-3.77,16.33-3.69,5.1.09,11.85,1.28,16.19,4.26,3.31,2.27,6.65,5.31,6.57,9.71s-3.63,7.19-6.9,9.48Z" transform="translate(0 -30.89)"/><path class="cls-5" d="M641.13,656.67,578.23,693,478,750.87l-23,13.3c-4,2.3-10.25,2.29-14.14-.25-3.56-2.33-3.64-6.16.15-8.34l62.89-36.32L604.1,661.38l23-13.3c4-2.31,10.25-2.3,14.14.24,3.57,2.33,3.64,6.16-.14,8.35Z" transform="translate(0 -30.89)"/><path class="cls-5" d="M435.1,791.68l98.58-56.91,14-8.09c3.45-2,4,6.08,4,7.71,0,3.34-.27,10.62-3.76,12.64l-98.57,56.91-14,8.09c-3.45,2-4-6.09-4-7.71-.05-3.35.26-10.63,3.75-12.64Z" transform="translate(0 -30.89)"/><path class="cls-5" d="M529.69,676.49l-9.4,133.65L519,828.74l-3.88-10.5,98.57-56.91,14-8.09c3.45-2,4,6.08,4,7.71,0,3.34-.27,10.62-3.76,12.64L529.34,830.5l-14,8.09c-4.18,2.41-4-9.33-3.89-10.51l9.4-133.64,1.31-18.6c.15-2.22,1.15-10.44,4.68-10.14s3,8.91,2.85,10.79Z" transform="translate(0 -30.89)"/><path d="M575.7,713.05l-8.89,38.62-3.42-9.37L600.75,693c3.5-4.61,3.74,8,3.43,9.37L595.29,741c-.37,1.63-1.39,6.72-4,5.25-2.35-1.3-1.58-8.1-1.15-10L599,697.66l3.43,9.37-37.36,49.28c-3.5,4.62-3.74-8-3.43-9.36l8.88-38.62c.38-1.63,1.4-6.72,4-5.26,2.35,1.31,1.58,8.1,1.15,10Z" transform="translate(0 -30.89)"/><polygon class="cls-1" points="234.5 528.31 302.8 434.61 622.13 559.7 234.5 528.31"/><polygon class="cls-1" points="246.74 649.3 234.91 535.01 625.49 561.07 246.74 649.3"/><line class="cls-2" x1="984.7" y1="1140.19" x2="327.13" y2="0.25"/><line class="cls-2" x1="984.7" y1="1140.19" x2="327.13" y2="0.25"/><path d="M650.26,882.46a125.33,125.33,0,0,0-30.38-17.53c-11.48-4.62-23.57-7.13-35.69-9.4-17.14-3.21-34.66-3.83-51.77-7.26-16-3.2-32.75-9.29-41.74-23.83-4.65-7.53-7-16.38-8.34-25.06a162.66,162.66,0,0,1-1.47-30c.59-19.94,3.5-39.67,5.72-59.46.24-2.06.46-4.11.66-6.17s-2.81-1.93-3,0c-1.92,19.56-5,39-6.08,58.63a199.19,199.19,0,0,0,.37,30.8c.93,9.19,2.74,18.37,6.47,26.86a46.11,46.11,0,0,0,15.61,19.14c6.82,4.85,14.78,7.94,22.82,10.1,17,4.58,34.66,5.19,52,7.79,5.06.75,10.08,1.74,15.1,2.74,6.25,1.25,12.49,2.66,18.59,4.52a121.28,121.28,0,0,1,31.94,15.15q3.65,2.44,7.1,5.13c1.5,1.18,3.63-.94,2.1-2.13Z" transform="translate(0 -30.89)"/><path class="cls-3" d="M220.82,856.35c.78-24.42-.57-48.94-1.3-73.34-1.13-37.4-2-74.81-2-112.23.14-78.64,5.72-157.07,13.91-235.26,2.7-25.76,5.78-51.48,8.83-77.2.76-6.4-9.25-6.38-10-.06-6.84,57.67-13.23,115.37-17.43,173.3-5.78,79.71-6,159.38-3.7,239.23.82,28.44,2.57,57.05,1.66,85.5-.2,6.45,9.8,6.48,10,.06Z" transform="translate(0 -30.89)"/><path class="cls-4" d="M639.14,591.05c-21,9.81-41.15,21.56-61.27,33-27.27,15.55-54.38,31.39-81.65,46.95-26.62,15.2-53.34,30.27-80.64,44.22q-4.35,2.22-8.73,4.4c-.87.44-4.84,2.27-1.8,1a39.73,39.73,0,0,1-5.71,1.88c-.76.18-1.57.24-2.32.46-2,.59,2.62.15.71-.11-1.28-.18-2.67,0-4-.12s-2.4-.38-3.6-.61c-3-.58,2.5,1-1-.3-4.77-1.74-9.78-3.9-14.89-4.17-7.7-.41-14.7,3.19-20.88,7.38-18.1,12.26-32.7,28.46-47.45,44.4l-4.55,4.91c-2.74,3,0,.07.43-.46-1,1.28-2.32,2.47-3.44,3.65-3.44,3.63-6.92,7.21-10.5,10.7s-7.06,6.73-10.77,9.91c-2,1.72-4.07,3.36-6.14,5-.78.62-2.62,2.51.38-.25a30.7,30.7,0,0,1-3.79,2.61c-8.82,5.91-16.63,17.36-15.77,28.45.71,9.13,8.11,15.11,16.79,9.3,15.89-10.64,29.45-23.8,42.48-37.71,4-4.22,7.9-8.47,11.84-12.73,1-1.05,5.46-6,1.79-1.94,1.66-1.81,3.36-3.59,5.06-5.37a254.49,254.49,0,0,1,18.54-17.89c1.49-1.27,3-2.48,4.53-3.71,1-.81,2.11-2.44-.7.48a16,16,0,0,1,2.29-1.6c1.49-1,3.11-1.88,4.59-2.91.58-.41,2.1-.84-.41.06-3.11,1.13-.21,0,.32,0,3.8.21-2.64-.58-.2,0,.88.2,2,.2,2.89.31,3.46.41-2-.87,0,0,1.2.49,2.46.88,3.69,1.32,5.32,1.9,10.91,3.79,16.63,3.65,9.28-.23,17.11-3.47,25.33-7.54,55.48-27.49,108.57-59.74,162.25-90.52,23.17-13.29,46.33-27,70.56-38.35,4.6-2.14,9-8.07,11.36-12.29,2.48-4.47,4.82-10.9,4.41-16.16-.31-4-1.27-8.4-5.12-10.54s-8-.45-11.66,1.24Z" transform="translate(0 -30.89)"/><path class="cls-5" d="M600.41,586.14l-62.9,36.31L437.25,680.34l-23,13.3c-4,2.31-7.11,7.72-6.85,12.37.23,4.25,3.51,6.23,7.29,4l62.9-36.31,100.26-57.89,23-13.3c4-2.3,7.11-7.72,6.86-12.36-.24-4.26-3.52-6.23-7.3-4.05Z" transform="translate(0 -30.89)"/><path class="cls-5" d="M380.47,697.06l98.58-56.92,14-8.08c3.45-2-3.28-6.48-4.68-7.32-2.87-1.71-9.33-5.08-12.82-3.06L377,678.59l-14,8.09c-3.45,2,3.28,6.48,4.68,7.31,2.87,1.71,9.33,5.08,12.82,3.07Z" transform="translate(0 -30.89)"/><path class="cls-5" d="M527.52,672.73,407.08,614.05l-16.77-8.17,7.16,8.62L496,557.58l14-8.08c3.45-2-3.28-6.48-4.68-7.32-2.87-1.71-9.33-5.08-12.82-3.06L394,596l-14,8.09c-4.18,2.41,6.09,8.09,7.15,8.61l120.44,58.69,16.76,8.17c2,1,9.62,4.22,11.12,1s-6.22-7-7.92-7.87Z" transform="translate(0 -30.89)"/><path d="M518.86,614.61,481,603l6.4,7.65,61.36-7.72c5.75-.72-5.07-7.24-6.4-7.65l-37.88-11.61c-1.6-.49-6.52-2.15-6.56.85,0,2.68,6.22,5.41,8.07,6l37.88,11.61-6.4-7.65-61.36,7.72c-5.75.72,5.06,7.24,6.4,7.65l37.88,11.61c1.6.49,6.51,2.15,6.56-.85,0-2.68-6.23-5.41-8.07-6Z" transform="translate(0 -30.89)"/><polygon class="cls-1" points="411 222.61 364 328.61 632 542.61 411 222.61"/><polygon class="cls-1" points="521.9 172.71 417 219.61 634.87 544.84 521.9 172.71"/><line class="cls-2" x1="1316" y1="566.36" y2="566.86"/><line class="cls-2" x1="1316" y1="566.36" y2="566.86"/><path d="M898.83,451.93a125.21,125.21,0,0,1-30.38-17.55c-9.73-7.63-18-16.84-26-26.2-11.35-13.25-20.64-28.11-32.17-41.21-10.76-12.24-24.43-23.72-41.5-24.23-8.86-.27-17.68,2.14-25.88,5.3a163.22,163.22,0,0,0-26.72,13.73c-17,10.48-32.6,22.86-48.63,34.69q-2.49,1.85-5,3.65c-1.57,1.13-3.07-1.47-1.51-2.59,16-11.44,31.26-23.83,47.74-34.58a198.56,198.56,0,0,1,26.85-15.07c8.43-3.79,17.28-6.82,26.5-7.84a46.17,46.17,0,0,1,24.38,4c7.61,3.48,14.26,8.82,20.16,14.7,12.46,12.43,21.82,27.43,32.73,41.14,3.19,4,6.56,7.86,9.93,11.7,4.21,4.79,8.55,9.49,13.21,13.85a121.3,121.3,0,0,0,29.09,20.07c2.62,1.3,5.29,2.49,8,3.59,1.76.71,1,3.61-.8,2.89Z" transform="translate(0 -30.89)"/><path class="cls-3" d="M661.5,93.08c-20.76,12.88-42.67,24-64.17,35.54-33,17.73-65.81,35.64-98.18,54.41-68,39.44-133.16,83.49-196.78,129.68-21,15.22-41.69,30.74-62.45,46.24-5.16,3.85-10.15-4.82-5-8.63,46.53-34.75,93.3-69.14,141.37-101.74,66.14-44.87,135-84.9,205.33-122.83,25-13.5,50.69-26.29,74.88-41.31,5.48-3.4,10.51,5.25,5,8.64Z" transform="translate(0 -30.89)"/><path class="cls-4" d="M640.9,588c-2-23.1-1.91-46.42-2-69.58-.17-31.39,0-62.79-.16-94.18-.15-30.65-.46-61.33-2-91.95-.16-3.25-.35-6.5-.55-9.76-.06-1-.46-5.32,0-2.07a37.89,37.89,0,0,0-1.22-5.88c-.22-.75-.57-1.49-.76-2.24-.47-2,1.44,2.19.26.67-.79-1-1.32-2.32-2.09-3.38s-1.53-1.88-2.33-2.81c-2-2.34,2.09,1.68-.73-.67-3.89-3.26-8.27-6.52-11.06-10.81-4.2-6.47-4.58-14.33-4-21.78,1.57-21.8,8.3-42.55,14.73-63.29l2-6.39c1.19-3.86.07,0-.19.6.61-1.51,1-3.25,1.45-4.81,1.41-4.79,2.77-9.6,4-14.44s2.3-9.48,3.2-14.28c.48-2.6.88-5.21,1.26-7.82.15-1,.87-3.52,0,.45a30.42,30.42,0,0,0,.37-4.58c.7-10.59,6.72-23.08,16.75-27.88,8.26-4,17.15-.54,16.45,9.88-1.27,19.09-5.89,37.41-11.41,55.65-1.68,5.55-3.4,11.08-5.11,16.61-.42,1.37-2.43,7.72-.79,2.52-.74,2.35-1.42,4.71-2.12,7.07a253,253,0,0,0-6.22,25c-.36,1.92-.64,3.85-.94,5.77-.2,1.28-1.07,3.05.06-.84a14.57,14.57,0,0,0-.24,2.78c-.14,1.8-.08,3.63-.23,5.43-.06.71.32,2.24-.15-.39-.58-3.25-.12-.17.16.28,2.09,3.19-1.82-2-.11-.17a26.71,26.71,0,0,1,1.72,2.35c2.09,2.79-1.75-1.3,0,.05,1,.81,2,1.7,3,2.54,4.31,3.66,8.75,7.56,11.48,12.58,4.45,8.15,5.55,16.55,6.13,25.7,3.94,61.8,2.55,123.9,2.74,185.77.08,26.72-.25,53.65,2.07,80.29.44,5.06-2.48,11.85-5,16-2.63,4.37-7,9.62-11.78,11.89-3.62,1.73-7.92,3.11-11.7.83S641.24,592,640.9,588Z" transform="translate(0 -30.89)"/><path class="cls-5" d="M617.28,556.91v-215c0-4.61,3.13-10,7.29-12.12,3.8-1.92,7.15-.07,7.15,4.3v215c0,4.61-3.13,10-7.29,12.12-3.8,1.92-7.15.07-7.15-4.3Z" transform="translate(0 -30.89)"/><path class="cls-5" d="M603.37,311V441c0,4-7.25.4-8.67-.39-2.92-1.63-9.07-5.55-9.07-9.57V301c0-4,7.25-.4,8.67.39,2.92,1.63,9.07,5.55,9.07,9.57Z" transform="translate(0 -30.89)"/><path class="cls-5" d="M655.83,450.49l-111-75L529.33,365.1l11,1.88V497c0,4-7.25.4-8.67-.39-2.92-1.63-9.07-5.55-9.07-9.57V357c0-4.83,10.06,1.22,11,1.88l111,75,15.46,10.44c1.84,1.24,8.46,6.22,6.43,9.12s-9.2-1.87-10.77-2.93Z" transform="translate(0 -30.89)"/><path d="M601.17,472.06l-29-27,9.82,1.71,24,57c2.25,5.34-8.8-.76-9.82-1.71l-29-27c-1.23-1.14-5.12-4.57-2.55-6.11,2.31-1.38,7.8,2.68,9.22,4l29,27L593,498.23l-24-57c-2.25-5.34,8.8.76,9.83,1.71l29,27c1.22,1.14,5.12,4.57,2.54,6.11-2.31,1.38-7.8-2.68-9.21-4Z" transform="translate(0 -30.89)"/><polygon class="cls-1" points="905 222.61 952 328.61 684 542.61 905 222.61"/><polygon class="cls-1" points="794.1 172.71 899 219.61 681.13 544.84 794.1 172.71"/><line class="cls-2" y1="566.36" x2="1316" y2="566.86"/><line class="cls-2" y1="566.36" x2="1316" y2="566.86"/><path d="M417.17,451.93a125.21,125.21,0,0,0,30.38-17.55c9.73-7.63,18-16.84,26-26.2,11.35-13.25,20.64-28.11,32.17-41.21,10.76-12.24,24.43-23.72,41.5-24.23,8.86-.27,17.68,2.14,25.88,5.3a163.22,163.22,0,0,1,26.72,13.73c17,10.48,32.6,22.86,48.63,34.69q2.49,1.85,5,3.65c1.57,1.13,3.07-1.47,1.51-2.59-16-11.44-31.26-23.83-47.74-34.58a198.56,198.56,0,0,0-26.85-15.07c-8.43-3.79-17.28-6.82-26.5-7.84a46.17,46.17,0,0,0-24.38,4c-7.61,3.48-14.26,8.82-20.16,14.7-12.46,12.43-21.82,27.43-32.73,41.14-3.19,4-6.56,7.86-9.93,11.7-4.21,4.79-8.54,9.49-13.21,13.85a121.3,121.3,0,0,1-29.09,20.07c-2.62,1.3-5.29,2.49-8,3.59-1.77.71-1,3.61.79,2.89Z" transform="translate(0 -30.89)"/><path class="cls-3" d="M654.5,93.08c20.76,12.88,42.67,24,64.17,35.54,33,17.73,65.81,35.64,98.18,54.41,68,39.44,133.16,83.49,196.78,129.68,21,15.22,41.69,30.74,62.45,46.24,5.16,3.85,10.15-4.82,5.05-8.63-46.53-34.75-93.3-69.14-141.37-101.74-66.14-44.87-135-84.9-205.33-122.83-25-13.5-50.69-26.29-74.88-41.31-5.48-3.4-10.51,5.25-5,8.64Z" transform="translate(0 -30.89)"/><path class="cls-4" d="M675.1,588c2-23.1,1.91-46.42,2-69.58.17-31.39,0-62.79.16-94.18.15-30.65.46-61.33,2-91.95.16-3.25.35-6.5.55-9.76.06-1,.46-5.32,0-2.07a37.89,37.89,0,0,1,1.22-5.88c.23-.75.57-1.49.76-2.24.47-2-1.44,2.19-.25.67.78-1,1.31-2.32,2.08-3.38s1.53-1.88,2.33-2.81c2-2.34-2.09,1.68.73-.67,3.89-3.26,8.27-6.52,11.06-10.81,4.2-6.47,4.58-14.33,4-21.78-1.57-21.8-8.3-42.55-14.73-63.29l-2-6.39c-1.19-3.86-.07,0,.19.6-.61-1.51-1-3.25-1.45-4.81-1.41-4.79-2.77-9.6-4-14.44s-2.3-9.48-3.2-14.28c-.48-2.6-.88-5.21-1.26-7.82-.15-1-.87-3.52,0,.45a30.42,30.42,0,0,1-.37-4.58c-.7-10.59-6.72-23.08-16.75-27.88-8.26-4-17.14-.54-16.45,9.88,1.27,19.09,5.89,37.41,11.41,55.65,1.68,5.55,3.4,11.08,5.11,16.61.42,1.37,2.43,7.72.79,2.52.74,2.35,1.42,4.71,2.12,7.07a253,253,0,0,1,6.22,25c.36,1.92.64,3.85.94,5.77.2,1.28,1.07,3.05-.06-.84a14.57,14.57,0,0,1,.24,2.78c.14,1.8.08,3.63.23,5.43.06.71-.32,2.24.15-.39.58-3.25.12-.17-.16.28-2.09,3.19,1.82-2,.11-.17a26.71,26.71,0,0,0-1.72,2.35c-2.09,2.79,1.75-1.3,0,.05-1,.81-2,1.7-3,2.54-4.31,3.66-8.75,7.56-11.48,12.58-4.45,8.15-5.55,16.55-6.13,25.7-3.94,61.8-2.55,123.9-2.74,185.77-.08,26.72.25,53.65-2.07,80.29-.44,5.06,2.48,11.85,5,16,2.63,4.37,7,9.62,11.78,11.89,3.62,1.73,7.92,3.11,11.7.83S674.76,592,675.1,588Z" transform="translate(0 -30.89)"/><path class="cls-5" d="M698.72,556.91v-215c0-4.61-3.13-10-7.29-12.12-3.8-1.92-7.15-.07-7.15,4.3v215c0,4.61,3.13,10,7.29,12.12,3.8,1.92,7.15.07,7.15-4.3Z" transform="translate(0 -30.89)"/><path class="cls-5" d="M712.63,311V441c0,4,7.25.4,8.67-.39,2.92-1.63,9.07-5.55,9.07-9.57V301c0-4-7.25-.4-8.67.39-2.92,1.63-9.07,5.55-9.07,9.57Z" transform="translate(0 -30.89)"/><path class="cls-5" d="M660.17,450.49l111-75,15.46-10.43-11,1.88V497c0,4,7.25.4,8.67-.39,2.92-1.63,9.07-5.55,9.07-9.57V357c0-4.83-10.06,1.22-11,1.88l-111,75L655.83,444.3c-1.84,1.24-8.46,6.22-6.43,9.12s9.2-1.87,10.77-2.93Z" transform="translate(0 -30.89)"/><path d="M714.84,472.06l29-27L734,446.77l-24,57c-2.25,5.34,8.8-.76,9.83-1.71l29-27c1.22-1.14,5.12-4.57,2.54-6.11-2.31-1.38-7.8,2.68-9.21,4l-29,27,9.82-1.71,24-57c2.25-5.34-8.8.76-9.82,1.71l-29,27c-1.23,1.14-5.12,4.57-2.55,6.11,2.31,1.38,7.8-2.68,9.22-4Z" transform="translate(0 -30.89)"/></g></g></svg>