<?xml version="1.0" encoding="UTF-8" standalone="no"?>
<!DOCTYPE svg PUBLIC "-//W3C//DTD SVG 1.1//EN" "http://www.w3.org/Graphics/SVG/1.1/DTD/svg11.dtd">
<svg width="100%" height="100%" viewBox="0 0 839 279" version="1.1" xmlns="http://www.w3.org/2000/svg" xmlns:xlink="http://www.w3.org/1999/xlink" xml:space="preserve" xmlns:serif="http://www.serif.com/" style="fill-rule:evenodd;clip-rule:evenodd;stroke-linejoin:round;stroke-miterlimit:1.41421;">
    <g transform="matrix(1,0,0,1,-8.634,-22.63)">
        <g transform="matrix(1,0,0,1,-133,-399)">
            <path d="M178.292,505.725C178.849,505.559 179.411,505.394 179.959,505.217C179.513,505.153 179.053,505.089 178.598,505.027C178.223,505.195 177.874,505.372 177.571,505.567C177.811,505.62 178.052,505.672 178.292,505.725Z" style="fill:rgb(195,216,204);fill-rule:nonzero;"/>
            <path d="M157.059,510.582C155.208,510.093 153.432,509.571 150.793,509.688C150.159,509.979 149.834,510.121 149.669,510.2C150.645,510.495 151.964,510.902 153.283,511.298C155.88,512.086 157.217,511.479 157.059,510.582Z" style="fill:rgb(195,216,204);fill-rule:nonzero;"/>
            <path d="M149.669,510.2C148.764,509.922 148.161,509.738 148.161,509.738C148.507,509.953 148.845,510.147 149.169,510.341C149.457,510.298 149.466,510.291 149.466,510.291C149.466,510.291 149.476,510.286 149.669,510.2Z" style="fill:rgb(195,216,204);fill-rule:nonzero;"/>
            <path d="M648.33,498.435C683.652,499.796 719.119,500.707 754.572,501.373C755.76,501.398 756.76,501.108 756.818,500.702C756.876,500.355 755.954,499.995 754.855,500.001C719.384,499.276 684.094,498.349 648.779,496.993C647.591,496.977 646.611,497.265 646.449,497.641C646.39,498.047 647.223,498.385 648.33,498.435Z" style="fill:rgb(195,216,204);fill-rule:nonzero;"/>
            <path d="M912.943,537.878C912.101,538.182 912.132,538.594 913.006,538.877C913.753,539.124 915.09,539.156 915.922,538.857C916.628,538.6 916.602,538.103 915.855,537.86C914.986,537.573 913.649,537.625 912.943,537.878Z" style="fill:rgb(195,216,204);fill-rule:nonzero;"/>
            <path d="M179.648,569.267L179.199,568.947L184.631,561.205L179.648,569.267ZM210.097,535.767L210.065,535.767C209.381,535.309 208.562,534.75 207.514,534.048C207.514,534.048 208.598,534.771 210.097,535.767ZM299.974,498.62C301.721,499.364 303.476,500.115 305.235,500.862C304.988,500.853 304.735,500.838 304.484,500.817C302.17,500.499 299.853,500.197 297.53,499.872C297.953,500.086 298.381,500.288 298.813,500.492C289.852,499.969 280.917,499.419 272.033,498.774C259.208,496.775 245.431,495.416 231.475,494.849C235.516,494.021 239.349,493.089 242.917,492.082C260.678,494.268 277.731,497.135 296.324,497.967C297.553,498.17 298.764,498.391 299.974,498.62ZM279.64,519.317C270.521,518.748 261.258,518.341 251.752,518.119C248.214,518.032 244.722,518.169 241.377,518.533C237.637,516.506 233.676,514.542 228.591,512.946C237.106,514.158 246.833,514.632 255.78,515.447C265.704,516.363 275.462,517.209 285.188,517.977C284.05,518.071 282.911,518.144 281.759,518.238C280.642,518.367 278.455,518.238 279.64,519.317ZM168.766,520.972C169.359,521.146 169.819,521.411 170.575,521.841C170.575,521.841 170.566,521.841 168.766,520.972ZM934.975,554.953C909.418,553.855 883.71,552.833 857.951,551.995C859.752,551.65 861.544,551.313 863.353,550.982C865.144,550.863 866.935,550.723 868.727,550.603C885.29,550.5 901.853,550.283 918.474,549.872C924.681,549.952 929.816,548.289 930.146,546.122C930.244,544.014 925.635,542.31 919.659,542.146C920.625,542.019 921.584,541.881 922.556,541.766C923.534,541.672 924.231,541.256 923.965,540.922C923.583,540.546 922.336,540.305 921.387,540.398C917.89,540.885 914.46,541.403 911.017,541.916C879.456,541.121 847.852,541.372 816.247,541.786C850.256,539.301 884.723,537.596 919.433,536.926C918.731,537.185 918.65,537.633 919.514,537.917C920.252,538.155 921.72,538.15 922.435,537.89C923.259,537.596 923.119,537.139 922.368,536.894C922.336,536.886 922.323,536.882 922.291,536.874C940.92,536.543 959.612,536.5 978.353,536.798C979.447,536.831 980.387,536.494 980.365,536.081C980.343,535.663 979.339,535.337 978.124,535.35C916.04,534.374 854.458,537.122 794.3,542.079C791.024,542.122 787.738,542.174 784.439,542.209C784.439,542.202 784.439,542.189 784.435,542.18C783.399,540.553 781.226,539.114 778.274,537.94C799.571,537.233 820.752,536.396 842.009,535.42C859.716,535.558 877.422,535.704 895.165,535.81C897.721,535.835 899.859,535.151 899.918,534.19C899.994,533.314 897.879,532.625 895.192,532.563C890.844,532.502 886.496,532.484 882.148,532.433C885.731,531.314 888.076,529.729 888.314,527.951C888.557,526.237 886.757,524.674 883.732,523.467C902.915,521.845 921.918,520.042 940.465,517.645C941.554,517.511 942.135,517.135 941.748,516.759C941.361,516.388 940.241,516.187 939.165,516.323C912.191,517.348 885.564,518.881 858.861,520.082C837.783,517.977 817.16,515.7 794.373,514.879C761.189,513.747 730.024,515.958 698.901,518.169C687.708,517.611 676.554,517.19 665.486,516.929C667.044,516.111 667.972,515.14 667.972,514.085C667.972,513.82 667.854,513.563 667.728,513.301C677.472,513.439 687.271,513.543 697.231,513.649C789.566,514.597 876.27,507.355 964.59,501.373C970.239,501.138 974.325,499.359 973.646,497.435C972.984,495.497 967.768,494.099 962.137,494.333C919.784,494.346 880.744,497.699 837.888,501.022C807.371,503.375 780.56,505.11 749.914,506.75C714.032,508.642 680.654,508.223 645.48,508.179C642.023,507.872 638.559,507.662 635.062,507.777C631.524,507.887 627.996,507.998 624.489,508.105C596.957,507.833 569.957,506.595 543.091,505.278C575.236,504.089 607.318,502.698 638.941,500.067C641.218,499.96 642.722,499.229 642.487,498.485C642.083,497.731 640.039,497.189 637.762,497.302C593.671,498.928 549.419,499.568 505.23,500.368C493.177,493.697 467.661,489.762 444.86,489.523C436.439,489.404 428.635,490.146 420.767,491.241C424.44,491.524 428.022,491.775 431.691,492.061C420.848,492.294 411.609,494.016 402.471,495.799C401.675,495.711 400.878,495.621 400.023,495.57C378.802,491.882 354.016,492.608 331.093,491.013C331.579,491.869 332.173,492.713 332.659,493.565C328.42,492.91 325.944,491.37 321.299,490.903C322.604,491.524 323.819,492.151 325.125,492.776C325.035,492.769 324.935,492.757 324.846,492.749C319.881,491.365 313.896,490.752 307.68,490.698C293.573,486.739 276.351,484.456 258.305,483.379C255.976,482.354 252.488,481.641 248.399,481.51C246.67,481.189 244.65,480.972 243.398,480.524C232.182,476.366 218.486,473.518 203.377,471.384C206.285,472.173 209.322,472.961 212.235,473.748C207.869,473.096 203.561,472.416 198.696,472.375C199.205,472.868 199.862,473.361 200.375,473.858C185.352,470.286 164.751,471.567 154.367,476.687C143.944,481.82 147.616,488.856 162.645,492.423L164.813,492.977C157.138,493.765 150.44,495.442 146.658,498.391C144.637,500.012 146.406,502.063 146.842,503.951C146.23,506.683 152.284,509.072 160.322,509.267C162.502,509.317 164.582,509.192 166.491,508.945C175.766,509.953 185.25,510.754 194.272,511.978C196.054,512.282 198.228,512.017 199.169,511.381C199.97,510.752 199.2,510.009 197.355,509.729C190.854,508.453 184.558,507.1 178.292,505.725C177.771,505.88 177.254,506.038 176.732,506.201C176.953,505.968 177.26,505.767 177.571,505.567C177.001,505.441 176.429,505.316 175.86,505.191C176.305,505.072 176.72,504.941 177.179,504.829C177.655,504.895 178.124,504.962 178.598,505.027C179.392,504.672 180.304,504.36 181.341,504.093C192.595,505.042 203.738,506.1 214.219,507.915C214.832,508.03 213.806,509.251 214.93,509.701C215.494,509.922 216.074,510.124 216.682,510.329C214.8,510.064 212.811,509.839 210.672,509.67C202.617,511.401 199.574,512.053 197.472,512.503C197.463,512.496 197.44,512.491 197.436,512.486C197.436,512.486 197.417,512.491 196.805,512.645C195.834,512.854 194.983,513.033 193.754,513.298C193.754,513.298 193.764,513.34 193.764,513.404C193.521,513.467 193.259,513.533 192.989,513.6C191.787,513.52 190.585,513.427 189.375,513.353C188.016,513.243 186.697,513.467 186.036,513.846C185.563,513.543 185.058,513.234 184.42,512.927C177.533,512.329 177.533,512.329 170.466,511.789C170.466,511.789 170.48,512.1 170.71,512.534C170.431,512.563 168.077,512.897 165.327,512.729C162.681,512.781 162.681,512.781 156.073,512.269L159.264,513.495L156.47,512.645L157.199,514.042L155.911,512.519L154.709,513.663C154.709,513.663 154.691,513.649 149.169,510.341C148.737,510.413 147.711,510.582 145.136,511.013C145.136,511.013 144.42,511.327 143.898,511.708C143.84,512.115 143.84,512.115 141.639,513.538C141.639,513.538 141.589,514.006 141.805,514.503C142.481,514.966 142.481,514.966 142.651,516.247C142.651,516.247 143.413,516.741 144.524,517.166C145.586,517.412 145.861,517.476 149.799,518.268C149.457,518.482 149.133,518.712 148.845,518.946C148.084,521.323 148.084,521.323 153.004,526.848C153.004,526.848 155.749,528.357 160.196,529.446C165.358,529.971 165.358,529.971 171.322,530.519C171.322,530.519 172.618,530.724 174.86,530.993C176.529,531.891 176.899,532.125 178.136,532.934C178.136,532.934 178.145,532.934 178.164,532.945C177.024,533.001 175.908,533.16 174.981,533.42C172.294,534.194 171.92,535.542 174.176,536.457C171.209,540.115 172.983,543.429 176.732,546.6C175.589,547.808 175.062,549.089 175.215,550.401C170.823,553.524 168.086,556.845 166.938,560.379L166.412,563.467C167.681,566.073 171.368,568.51 176.84,570.382L178.497,571.124L176.926,573.67C183.933,580.446 197.805,585.877 206.37,592.346L212.811,595.757C217.492,598.512 224.918,600.53 233.618,601.503L242.813,602.479C244.749,602.526 246.67,602.559 248.619,602.581C238.834,605.742 233.456,610.399 235.247,615.318C238.331,623.411 260.124,629.16 283.91,628.063C347.404,627.742 408.705,627.196 473.599,623.831C521.641,621.379 565.222,618.055 612.327,618.067C657.376,614.563 700.774,610.029 744.724,604.607C781.653,600.089 809.91,591.003 842.573,584.094C843.522,583.913 843.612,583.458 843.108,583.13C842.352,582.799 841.024,582.767 840.173,582.983C788.355,589.002 736.132,594.224 680.592,595.444C674.228,595.573 667.972,595.598 661.778,595.543C661.094,595.419 660.342,595.333 659.528,595.309C653.897,594.914 648.239,594.566 642.591,594.235C644.558,594.214 646.521,594.188 648.492,594.147C652.394,594.2 655.738,593.177 656.017,591.797C656.026,591.219 655.477,590.689 654.568,590.251C669.007,588.805 683.135,586.92 697.218,584.937C701.422,584.787 705.288,584.301 708.618,583.57C724.902,584.576 741.24,585.3 757.615,586.228L761.67,586.624C767.043,586.913 772.224,586.082 774.803,584.481C775.635,584.011 776.131,583.501 776.378,582.988C813.663,580.154 851.525,578.036 886.726,572.723C888.512,572.451 889.458,571.874 889.169,571.232C889.831,571.386 890.708,571.429 891.492,571.268C895.687,570.195 900.39,569.537 905.345,568.959C906.426,568.737 907.016,568.362 906.511,568.035C905.998,567.623 904.774,567.461 903.806,567.635C898.738,568.257 893.778,569.002 889.233,570.038C888.746,570.162 888.422,570.357 888.337,570.566C887.324,570.168 885.722,569.986 884.134,570.162C847.753,571.959 812.534,575.969 775.807,576.846C793.77,574.398 812.152,572.702 831.482,570.849C854.815,568.639 876.279,565.474 899.801,564.209C901.025,564.204 901.843,563.822 901.713,563.446C901.556,563.072 900.552,562.745 899.346,562.841C851.155,564.746 808.919,573.98 759.145,573.984C757.187,573.98 755.229,573.941 753.298,573.887C768.65,570.666 783.724,567.374 798.753,564.13C844.539,562.768 890.128,560.715 935.159,557.7C937.36,557.683 939.137,557.041 939.084,556.295C939.039,555.543 937.167,554.935 934.975,554.953Z" style="fill:rgb(195,216,204);fill-rule:nonzero;"/>
            <path d="M316.559,506.529C314.754,506.246 313.331,504.928 309.87,507.729C312.807,507.252 314.257,508.305 316.559,506.529ZM317.289,502.394C314.701,502.092 311.734,502.833 308.218,503.812C306.301,504.562 304.412,505.047 302.316,505.02C300.486,504.992 298.857,505.486 297.142,506.758C303.714,506.594 310.364,505.66 318.45,503.702C317.986,503.181 317.75,502.924 317.289,502.394ZM300.17,503.171C298.571,503.409 296.938,503.903 295.282,504.654C296.792,505.194 298.656,504.965 300.17,503.171ZM297.35,497.947C295.75,498.175 294.385,498.678 294.209,500.234C294.996,500.243 295.488,500.509 295.778,500.252C300.17,498.504 303.778,496.748 307.875,495.256C309.735,495.019 311.304,495.046 313.134,495.073C313.164,494.817 313.747,494.305 313.777,494.049C311.652,494.268 309.735,495.019 307.875,495.256C304.359,496.236 300.871,496.958 297.35,497.947ZM265.658,504.718C262.437,505.45 261.532,506.475 259.842,509.823C261.151,509.842 262.663,510.382 264.237,510.409C265.772,510.693 265.946,511.471 266.321,512.77C263.855,513.767 261.499,513.73 259.113,516.293C262.313,515.817 264.72,515.341 267.423,514.6C269.402,511.004 271.091,507.655 273.129,503.537C270.164,504.27 268.304,504.507 265.658,504.718ZM282.67,616.187C282.497,615.409 281.305,614.348 280.873,613.57C281.511,612.536 282.355,612.032 282.705,611.264C283.229,608.931 283.261,606.341 283.784,604.017C283.901,602.982 283.988,602.205 284.107,601.171C285.795,597.831 286.406,594.729 286.006,591.353C286.063,590.831 286.992,589.55 287.108,588.517C287.429,588.004 288.042,587.235 287.841,586.714C287.17,585.671 287.838,584.38 289.35,582.587C290.283,581.306 290.43,580.016 291.098,578.726C293.317,573.062 294.742,567.379 296.927,561.971C295.687,552.098 320.969,518.517 301.813,523.412C300.676,524.181 299.049,524.666 297.711,524.912C277.615,533.422 279.331,532.15 272.049,550.186C271.496,552.766 270.711,555.09 269.897,557.67C269.512,558.705 269.661,559.738 268.988,561.02C264.885,569.521 263.393,578.048 257.168,586.769C256.614,587.016 256.584,587.28 256.265,587.793C250.599,593.924 251.411,593.677 244.898,593.32C243.855,593.312 242.865,592.771 242.021,593.274C239.083,593.75 237.69,592.177 237.633,590.355C237.665,587.766 237.958,585.186 238.802,582.34C242.503,570.472 247.307,558.101 252.346,545.995C258.402,534.164 246.012,541.758 246.341,531.913C246.252,530.348 245.937,528.536 246.632,526.99C247.771,523.896 248.092,521.051 249.201,518.215C249.958,516.146 250.132,514.6 249.434,513.804C251.678,510.217 253.627,506.877 255.896,503.025C259.385,504.626 263.512,502.878 268.828,502.183C272.322,501.451 276.247,496.849 277.123,493.747C281.49,482.931 285.564,477.029 291.766,466.232C295.693,459.296 300.959,452.113 305.706,444.93C306.958,443.136 308.326,442.642 310.126,442.926C312.187,443.218 313.727,443.493 315.79,443.786C318.317,444.601 318.402,446.156 317.357,448.48C315.321,452.588 312.816,456.185 311.361,459.79C309.325,463.908 307.346,467.513 305.338,471.365C287.411,495.458 303.81,494.149 324.248,487.204C324.915,485.923 325.762,485.411 326.139,484.386C329.344,476.91 331.931,472.545 335.948,464.832C336.708,462.764 338.57,460.201 338.805,458.133C339.185,454.766 341.859,451.957 343.783,448.874C345.062,446.824 346.082,444.765 346.636,442.185C346.839,440.373 348.44,437.802 349.463,435.743C352.602,431.122 356.006,426.512 359.174,421.63C362.839,421.686 366.503,421.741 369.903,421.795C375.397,421.878 380.224,423.246 384.147,425.639C387.835,427.771 389.578,430.912 387.975,435.807C386.316,438.891 385.703,441.992 383.292,444.811C376.946,454.565 372.14,464.603 367.626,474.385C362.155,485.704 375.935,482.025 382.912,480.58C384.25,480.332 385.85,480.104 386.199,481.659C381.139,482.363 375.498,483.571 370.935,484.542C368.258,485.017 366.341,485.768 364.126,486.774C361.075,488.284 359.474,490.846 358.339,493.938C359.647,493.957 361.71,494.25 363.28,494.277C364.067,494.286 365.403,494.049 366.245,493.545C369.418,493.335 372.643,492.603 375.724,493.17C377.003,493.444 379.911,493.234 381.798,492.74C383.923,492.511 385.753,492.539 388.109,492.575C387.469,491.276 386.803,490.224 386.423,488.924C386.309,487.625 387.272,486.087 388.027,484.02C388.548,484.029 389.335,484.047 389.857,484.047C390.152,483.8 390.152,483.8 390.442,483.544C389.772,482.492 388.581,481.439 388.176,480.396C391.689,481.741 394.304,484.12 394.937,487.753L394.995,487.241C394.416,487.753 393.865,488 392.817,487.982C390.52,492.099 393.659,492.145 397.059,492.2C393.076,494.991 390.928,493.143 388.022,493.353C389.734,494.415 390.694,495.21 392.142,496.263C390.257,496.757 388.192,496.464 386.821,499.301C388.1,499.575 389.669,499.603 391.733,499.886C389.848,500.38 388.452,501.14 387.375,501.378C386.298,501.625 384.959,501.863 383.743,503.4C384.786,503.418 385.774,503.949 387.052,504.233C380.567,505.944 374.084,507.664 367.514,510.153C363.177,511.379 358.323,512.605 353.702,514.088C349.918,515.076 347.564,517.373 346.171,520.457C343.552,525.086 342.239,529.734 340.926,534.374C339.764,537.732 338.863,541.081 337.172,544.43C334.694,550.094 333.789,555.786 331.606,561.193C329.973,566.354 328.34,571.515 326.185,576.666C326.127,577.188 325.286,577.691 324.673,578.46C324.613,578.973 324.005,579.741 324.236,580.007C325.396,583.648 323.069,588.021 321.582,591.893C321.493,592.67 321.145,593.439 321.085,593.961C321.463,597.593 318.988,600.924 317.3,604.273C316.863,605.819 314.331,607.329 312.555,609.123C311.247,609.104 309.911,609.342 309.099,609.59C308.312,609.571 307.53,609.562 306.974,609.818C303.224,612.865 299.386,612.032 295.636,615.089C294.239,615.839 294.996,613.78 293.864,614.54C292.995,615.309 292.379,616.077 292.118,616.068C291.07,616.05 290.608,615.527 289.59,615.253C289.009,615.766 287.845,616.781 287.264,617.294C283.686,618.795 283.453,618.529 282.67,616.187Z" style="fill:rgb(35,32,32);fill-rule:nonzero;"/>
            <path d="M424.843,485.356C424.232,486.124 423.649,486.637 423.27,487.662C423.242,487.927 423.182,488.439 422.602,488.952C421.728,489.72 420.829,490.745 419.634,492.017C419.021,492.786 416.814,493.792 415.476,494.03C414.984,493.765 414.138,494.268 413.556,494.78C411.871,495.787 410.853,495.513 409.864,494.982C409.139,494.451 408.613,494.442 407.831,494.433C406.783,494.415 405.996,494.405 404.978,494.131C405.273,493.875 405.591,493.362 405.882,493.106C405.971,492.329 406.58,491.56 406.961,490.535C407.629,489.245 408.238,488.476 409.171,487.195C409.23,486.673 410.075,486.17 410.104,485.914C410.28,484.358 411.731,483.086 412.694,481.54C413.302,480.771 413.918,480.003 414.526,479.243C415.105,478.731 415.69,478.218 416.212,478.228C416.768,477.981 417.29,477.99 417.52,478.246C417.461,478.767 417.987,478.777 418.539,478.521C419.09,478.273 419.385,478.017 419.616,478.273C420.6,478.813 421.881,479.088 422.899,479.371C424.642,480.167 425.804,481.485 426.646,483.306C425.776,484.074 425.422,484.853 424.843,485.356ZM397.582,513.2L397.873,512.944C398.776,511.919 399.328,511.672 400.169,511.16C403.104,510.693 410.175,506.136 412.616,507.729C413.286,508.771 415.757,510.107 416.681,511.16C417.582,512.468 417.64,514.28 416.564,516.86C414.615,520.2 412.429,523.274 409.871,527.383C409.169,528.93 408.5,530.22 408.124,531.245C406.812,533.559 405.413,536.652 403.841,538.958C402.448,542.051 408.268,532.288 407.453,534.868C407.364,535.637 406.751,536.405 406.43,536.927C403.756,542.069 403.873,541.036 403.079,545.684C402.787,548.273 400.252,561.458 400.249,563.792C400.304,565.604 401.236,566.656 401.901,567.699C402.892,568.239 404.082,569.291 405.593,569.831C406.785,570.884 408.151,570.39 409.749,570.151C432.342,562.722 424.816,559.748 438.864,546.745C441.6,543.415 444.83,540.358 446.605,536.231C446.635,535.975 446.635,535.975 447.563,534.694C448.579,537.302 445.292,540.879 448.87,541.712C442.261,551.467 436.727,565.641 427.248,570.683C424.251,574.004 404.708,589.257 393.693,584.683C389.882,585.927 386.892,582.248 383.143,580.638C380.647,579.567 378.264,577.453 376.2,574.827C375.276,571.451 374.379,567.8 374.759,564.441C374.409,562.877 374.612,561.065 374.759,559.775C375.898,556.682 376.045,550.716 377.326,548.667C377.733,547.376 378.405,546.086 378.582,544.54C379.133,544.284 378.758,542.984 380.615,542.755C380.876,542.755 381.256,541.721 381.549,541.475C383.059,539.681 383.5,538.125 385.012,536.341C385.012,536.341 378.904,541.694 382.626,536.561C385.303,531.418 390.653,525.8 392.634,522.195C392.691,521.683 393.302,520.914 393.302,520.914C394.263,519.368 395.165,518.352 394.846,516.531C394.702,515.487 395.082,514.454 396.043,512.917C396.534,513.182 396.768,513.447 397.582,513.2Z" style="fill:rgb(35,32,32);fill-rule:nonzero;"/>
            <path d="M493.594,565.714C491.936,566.473 490.684,568.267 490.332,571.378C490.446,572.668 491.117,573.72 491.899,573.729C492.482,573.217 493.265,573.235 493.85,572.723C495.246,571.963 496.673,570.947 497.602,569.667C500.919,565.833 502.433,561.706 501.47,563.243C498.446,564.497 496.154,563.948 493.594,565.714ZM526.512,545.739C526.041,552.208 528.399,549.911 538.256,548.511C541.455,548.044 546.309,546.818 551.543,542.225C554.158,539.938 556.713,542.829 557.875,544.137C557.758,545.171 553.773,550.295 553.19,550.808C541.473,557.112 535.717,557.021 527.494,557.936C520.775,559.391 519.873,562.749 516.932,567.882L515.651,569.941C514.512,573.034 512.418,575.34 510.847,577.646C510.266,578.158 509.657,578.927 509.102,579.174L506.139,582.239C504.886,584.032 503.083,586.082 501.106,587.345L499.04,589.395L496.161,591.683C495.346,591.929 494.564,591.92 493.804,591.646C493.082,591.115 492.121,590.328 491.363,590.054C491.189,589.275 491.279,588.498 491.366,587.72C491.107,585.387 490.556,583.301 488.228,583.008C487.244,582.478 486.574,581.425 485.88,580.638C485.006,579.063 484.279,578.542 483.058,577.746C480.882,576.154 480.825,572.009 483.3,568.678C484.61,566.363 486.066,565.092 487.752,564.075C489.467,562.804 491.414,561.797 493.333,561.047C496.71,559.025 499.587,559.071 503.163,557.57C505.109,556.563 506.624,554.77 507.992,551.942C510.579,545.235 513.787,535.435 515.362,528.463L516.357,519.661C516.417,519.148 516.474,518.626 516.268,518.104C516.154,516.805 514.905,516.274 514.004,517.299C513.453,517.546 513.164,517.803 512.814,518.571C510.664,521.39 508.507,524.208 506.846,527.301C502.072,534.74 497.506,542.71 492.761,549.893C489.269,555.283 486.095,560.16 483.096,565.823C478.121,575.074 468.17,584.262 463.629,594.299C462.641,596.102 461.915,597.904 460.228,598.911C458.862,599.414 458.102,601.473 457.926,603.028C457.72,604.841 457.226,606.899 456.528,608.445C455.89,609.479 455.248,610.505 454.666,611.017C452.894,612.801 452.221,614.082 451.292,615.372C447.943,621.796 445.116,628.237 443.805,635.21C443.194,638.313 442.842,641.423 441.703,644.516C441.179,646.84 439.927,648.634 438.011,649.384C436.613,650.144 435.449,651.159 434.433,653.218C434.143,653.475 433.239,654.499 432.978,654.489C432.191,654.48 431.725,656.283 431.116,657.062L430.85,657.052C426.575,657.766 424.315,654.618 423.297,649.677C422.283,644.735 422.377,639.301 422.7,634.121C423.578,621.687 425.713,609.8 428.686,597.401C429.764,592.487 431.395,587.326 432.71,582.688C434.664,574.681 437.402,566.684 440.341,559.208C444.507,547.871 448.908,536.79 453.536,525.974C454.616,523.394 455.922,521.079 457.061,517.985C461.076,510.272 464.629,502.028 468.676,494.058C470.423,490.196 473.015,485.832 475.284,481.97C476.707,480.954 478.016,480.973 479.205,482.034L485.043,486.005L485.281,486.271C488.673,490.992 490.387,496.721 490.295,504.489C490.378,508.387 489.621,512.779 488.074,517.162C485.802,523.348 483.213,530.045 480.124,536.479C478.089,540.596 475.934,545.748 473.836,550.387C468.012,564.816 476.588,563.133 478.917,558.76C479.933,556.701 484.444,551.585 485.523,549.005L496.147,531.537C497.835,528.197 499.407,525.892 501.79,523.33C503.86,521.289 505.984,518.727 508.312,516.687C510.058,515.158 512.554,513.904 514.383,513.932L518.831,513.996C521.242,513.521 523.104,515.616 524.994,517.464C526.21,518.26 527.025,520.346 527.05,522.414C527.082,524.492 527.34,526.825 527.134,528.637L527.333,536.158L526.512,545.739Z" style="fill:rgb(35,32,32);fill-rule:nonzero;"/>
            <path d="M548.105,602.837C546.476,603.33 544.735,604.858 543.745,606.661C542.781,608.198 541.883,609.224 540.746,609.982C539.581,610.998 538.421,612.023 537.748,613.305C537.314,614.851 537.168,616.15 536.499,617.432C535.797,618.978 535.946,620.021 536.639,620.808C537.54,622.116 538.472,623.168 539.368,624.477C540.098,625.008 541.116,625.282 542.276,624.267C543.406,623.498 544.282,622.738 545.707,621.723C546.867,620.707 548.061,619.426 549.226,618.401C551.788,616.626 553.851,614.586 555.77,611.502C556.351,610.998 556.704,610.221 557.024,609.709C558.566,607.659 559.874,605.344 560.924,603.028C562.496,600.723 562.528,598.124 563.868,595.553C564.129,595.562 564.186,595.04 564.216,594.784C565.151,586.503 554.386,598.262 550.895,601.317C550.022,602.086 549.18,602.589 548.105,602.837ZM555.878,624.468C554.83,624.449 554.83,624.449 552.303,625.969C552.303,625.969 552.362,625.456 552.392,625.19C551.893,624.925 551.893,624.925 551.691,624.404C551.111,624.916 550.324,624.897 549.976,625.676C548.551,626.691 547.212,626.929 545.584,627.423C545.035,627.67 545.035,627.67 543.783,627.14C544.104,626.618 544.133,626.361 544.452,625.85C543.669,625.84 543.086,626.344 542.308,626.335C541.983,626.847 541.432,627.103 540.91,627.094C538.668,628.356 537.68,627.826 536.87,625.739C536.52,624.175 536.436,622.619 535.504,621.567C534.169,619.472 534.201,616.882 534.002,614.027C534.118,612.993 534.582,611.182 535.25,609.9C536.419,606.542 538.311,603.724 540.752,600.649C545.611,594.757 550.644,589.65 556.109,585.332C567.076,576.42 565.799,573.812 563.539,565.997C562.642,560.022 560.524,555.584 558.433,550.89C558.289,549.847 557.589,549.06 557.445,548.026C555.471,544.623 552.641,525.653 553.169,520.996C553.748,520.493 553.547,519.972 554.185,518.938C554.101,517.382 554.803,515.835 556.015,514.298C556.37,513.53 557.326,511.983 556.69,510.684C557.619,509.403 558.085,507.591 559.019,506.31C559.686,505.029 560.3,504.26 560.997,502.714C561.606,501.945 561.96,501.167 562.83,500.408C563.793,498.861 564.751,497.324 565.712,495.787C566.996,493.728 568.739,492.2 569.988,490.407C570.31,489.894 570.571,489.894 571.122,489.647C571.969,489.135 572.259,488.878 572.897,487.854C573.801,486.838 574.382,486.326 574.849,486.847C576.592,487.652 577.811,488.448 579.205,490.022C579.205,490.022 579.465,490.031 579.698,490.297C581.936,491.368 585.04,501.002 584.921,504.37C584.834,505.148 584.745,505.917 585.214,506.447C585.038,508.003 584.862,509.549 584.159,511.095C583.404,513.164 582.59,515.735 581.309,517.793C580.666,518.818 580.316,519.596 579.241,519.834C578.399,520.346 577.496,521.362 576.857,522.396C576.507,523.165 575.372,523.924 575.487,525.224C575.487,525.224 575.427,525.745 575.137,525.992C574.206,527.282 573.247,528.819 572.58,530.11C571.239,532.681 570.713,537.339 571.26,539.416C571.639,540.715 572.804,542.033 573.497,542.819C576.578,545.721 578.344,555.594 580.902,558.485C582.091,559.538 581.771,562.383 582.695,563.444C584.409,569.163 593.566,562.31 600.575,560.599C604.823,557.808 609.069,555.026 613.342,551.979C616.453,549.948 619.598,547.669 622.476,545.373C624.484,543.854 626.26,542.06 628.033,540.275C629.488,539.004 630.972,537.466 632.457,535.939C632.862,536.981 633.033,537.759 633.212,538.537C633.557,540.102 633.642,541.658 632.42,543.195C632.07,543.964 631.491,544.476 631.402,545.253C630.672,547.056 629.714,548.593 628.49,550.131C627.005,551.668 625.99,553.727 624.505,555.255C623.08,556.271 621.916,557.295 620.751,558.312C618.745,559.839 616.739,561.358 614.73,562.886C614.44,563.143 613.858,563.655 613.568,563.911C610.517,565.412 607.607,567.965 604.496,569.986C603.62,570.756 602.485,571.515 601.352,572.274C595.68,576.081 587.833,575.962 587.044,582.944C587.506,588.141 587.622,587.098 585.353,593.292C585.525,594.07 584.946,594.583 585.118,595.361C584.504,596.129 584.74,596.395 584.74,596.395C583.517,597.932 583.716,600.777 583.02,602.324C582.7,602.837 582.116,603.349 581.565,603.596C581.275,603.853 581.014,603.853 580.719,604.108C579.501,605.646 578.017,607.174 577.024,608.977C575.393,611.804 567.51,618.941 565.186,620.981C564.282,622.007 563.671,622.774 562.798,623.534C561.574,625.072 559.136,625.813 557.475,626.563C557.184,626.819 556.923,626.819 556.893,627.075C555.121,628.859 553.202,629.61 551.602,629.849C551.049,630.095 551.019,630.36 550.468,630.607C552.3,628.302 554.075,626.518 555.878,624.468Z" style="fill:rgb(35,32,32);fill-rule:nonzero;"/>
            <path d="M685.908,471.164C686.286,470.13 686.693,468.839 687.1,467.549C687.599,465.481 688.356,463.422 688.85,461.354C689.374,459.03 689.376,456.697 689.379,454.364C689.237,453.33 688.477,453.055 687.898,453.567C686.766,454.327 685.922,454.831 685.254,456.121C683.973,458.17 682.665,460.485 681.875,462.81C681.528,463.578 680.919,464.347 680.569,465.125C679.926,466.149 679.288,467.174 678.615,468.464C677.801,471.035 676.957,473.872 675.85,476.718C674.04,483.425 681.34,483.8 683.436,479.161C684.25,476.581 685.064,474 685.908,471.164ZM674.436,500.802C677.785,494.369 679.153,489.208 669.904,494.506C666.061,503.007 664.341,508.936 661.081,516.924C652.896,538.318 663.085,522.405 667.828,512.88C670.218,507.994 671.554,505.422 674.436,500.802ZM710.655,539.708C710.479,541.264 709.692,541.255 709.811,542.554C709.956,543.588 706.229,551.046 705.586,552.08C703.548,556.197 701.251,560.306 699.213,564.423C696.33,569.045 693.51,573.152 690.655,577.518C689.403,579.312 675.351,594.656 673.923,595.662C670.266,597.94 663.75,604.584 660.372,606.606C658.135,607.869 649.964,610.596 648.104,610.834C644.675,611.035 640.98,611.236 637.931,610.413C632.523,609.553 625.322,601.409 623.29,596.193C622.247,593.851 620.911,591.755 620.417,589.156C619.754,585.771 619.582,580.327 619.758,576.438C622.217,554.706 625.185,551.641 633.834,530.769C634.564,528.975 635,527.419 635.726,525.617C636.192,523.805 637.185,522.012 637.881,520.465C638.985,517.629 640.095,514.792 641.17,512.221C643.121,506.548 651.037,496.812 644.901,495.43C643.101,495.138 641.502,495.375 640.083,494.058C638.631,493.005 637.148,492.2 635.698,491.139C635.229,490.617 634.507,490.086 634.388,488.787C634.943,488.54 635.492,488.284 635.753,488.293C639.507,487.57 642.989,486.847 646.743,486.124C649.156,485.639 651.803,485.42 654.445,485.2C655.522,484.962 656.627,484.459 657.295,483.169C658.315,481.119 659.83,479.326 660.614,477.001C663.788,472.125 666.203,466.973 669.607,462.361C672.693,458.262 675.719,454.675 679.473,451.619C680.084,450.859 680.958,450.09 681.539,449.578C682.673,448.819 683.776,448.315 685.055,448.599C686.565,449.139 688.223,448.389 690.053,448.416C690.314,448.416 690.314,448.416 690.604,448.16C694.356,447.446 695.489,449.011 696.213,451.875C697.229,454.482 697.458,457.081 697.108,460.183C696.932,461.739 697.046,463.038 697.161,464.338C697.31,465.372 697.163,466.662 696.751,467.961C696.344,469.242 695.937,470.542 695.502,472.088C694.741,474.146 693.986,476.214 693.23,478.273C693.142,479.051 693.084,479.564 692.73,480.341C693.46,480.872 694.247,480.881 695.29,480.899C698.46,480.68 701.889,480.479 705.057,480.268C709.505,480.332 714.217,480.405 718.664,480.469C720.233,480.497 721.743,481.037 723.55,481.321C722.935,482.089 722.617,482.602 722.327,482.858C721.741,483.37 720.901,483.874 720.35,484.13C718.428,484.871 716.221,485.877 714.297,486.628C714.268,486.884 714.006,486.884 714.006,486.884C711.102,487.094 707.816,488.348 704.705,488.037C702.871,488.009 701.013,488.238 699.124,488.732C698.016,489.235 696.708,489.208 695.633,489.455C693.512,489.684 691.647,489.913 689.527,490.142C688.45,490.388 687.841,491.148 687.198,492.182C686.908,492.429 686.878,492.694 686.588,492.951C682.456,501.698 677.337,509.915 672.967,518.407C672.329,519.431 671.691,520.457 671.339,521.234C669.737,523.796 668.429,526.111 667.322,528.948C666.276,531.263 664.705,533.569 663.161,535.618C661.909,537.421 661.905,539.754 660.393,541.547C656.783,547.971 651.16,567.59 650.57,577.426C650.361,581.571 650.97,585.469 651.839,589.367C652.214,590.676 653.175,591.463 653.846,592.515C654.106,592.515 654.337,592.78 654.859,592.789C657.215,592.826 661.896,593.146 664.426,591.637C666.112,590.621 674.661,584.536 676.376,583.264C680.741,579.439 690.717,569.996 693.919,564.862C696.774,560.498 698.726,554.825 701.546,550.716C702.887,548.145 706.146,542.49 707.777,539.672C709.057,539.946 711.003,538.94 710.655,539.708Z" style="fill:rgb(35,32,32);fill-rule:nonzero;"/>
            <path d="M744.067,526.999C743.459,527.767 742.555,528.792 741.917,529.817C740.664,531.61 740.778,532.91 742,533.706C742.727,534.237 743.718,534.768 744.15,535.554C745.516,537.385 747.639,537.155 749.759,536.936C751.649,536.442 753.161,534.657 754.414,532.855C756.741,528.481 757.878,527.722 759.943,523.348C765.237,513.575 756.606,515.78 752.335,518.828C749.217,520.859 746.747,524.189 744.067,526.999ZM726.607,553.956C726.577,554.212 726.577,554.212 726.549,554.468C726.577,554.212 726.577,554.212 726.607,553.956ZM708.768,547.203C706.99,551.32 706.813,555.209 706.896,559.098C706.867,559.354 707.127,559.354 707.363,559.619C707.947,556.783 708.5,554.193 709.052,551.613C709.519,549.801 709.99,547.999 709.376,546.434C709.088,546.69 708.798,546.947 708.768,547.203ZM706.895,563.765C707.068,564.542 707.27,565.064 707.443,565.842C707.354,566.619 708.084,567.15 707.441,568.175C707.21,567.91 706.95,567.91 706.977,567.653C705.961,565.046 705.821,561.669 705.675,558.302C705.444,558.037 705.735,557.78 705.762,557.524C706.201,553.645 706.611,550.021 708.098,546.15C708.445,545.382 708.795,544.604 708.882,543.835C708.941,543.314 708.972,543.058 709.088,542.023C708.13,543.561 707.492,544.586 707.109,545.62C706.702,546.91 706.325,547.944 705.917,549.234C704.108,555.941 703.667,562.163 705.929,567.636C706.339,568.678 707.034,569.465 707.705,570.509C708.167,571.039 708.658,571.305 709.417,571.579C709.388,571.835 709.679,571.579 710.205,571.588C709.562,570.289 708.894,569.236 708.519,567.938C707.91,566.373 708.086,564.816 707.446,563.518C707.185,563.509 706.895,563.765 706.895,563.765ZM734.375,540.853C734.318,541.365 733.737,541.877 733.186,542.125C732.897,542.38 732.342,542.636 732.254,543.405C731.877,544.439 731.586,544.695 730.77,544.942C730.218,545.189 730.189,545.455 729.754,547.001C730.276,547.01 730.537,547.01 730.768,547.276L730.738,547.532C730.216,547.523 729.695,547.523 728.908,547.504C729.255,546.736 729.345,545.958 729.402,545.437L728.88,545.437C728.416,547.239 727.945,549.051 727.48,550.854C727.977,551.119 728.208,551.384 728.469,551.384C728.523,553.205 728.35,554.751 728.144,556.563C727.94,558.375 728.29,559.94 728.666,561.239C729.336,562.292 730.782,568.011 731.452,569.063C734.702,572.732 738.623,577.463 742.78,577.783C744.058,578.066 751.795,576.886 753.133,576.648C759.612,574.928 766.012,571.652 772.265,567.343C777.093,564.049 781.719,560.232 786.573,556.673C786.864,556.417 787.154,556.161 787.449,555.905C789.222,554.12 790.967,552.592 792.743,550.798C795.943,547.999 798.88,545.199 801.616,541.868C802.545,540.578 803.474,539.306 805.102,538.803C804.313,541.127 803.556,543.195 802.275,545.245C801.932,546.013 801.321,546.791 800.738,547.294C798.962,549.087 797.48,550.616 796.201,552.674C795.298,553.69 794.133,554.715 793.234,555.74C792.944,555.996 792.619,556.508 792.011,557.268C792.827,557.03 793.376,556.774 794.188,556.527C793.754,558.073 792.416,558.32 792.008,559.61C792.239,559.867 792.209,560.132 792.708,560.397C791.775,561.678 790.903,562.438 789.739,563.463C788.023,564.734 786.278,566.263 784.793,567.791C782.146,570.344 779.294,572.375 776.443,574.406C775.018,575.422 773.859,576.438 772.461,577.197C771.327,577.957 770.219,578.46 769.084,579.22C767.428,579.97 765.77,580.729 764.084,581.736C761.291,583.245 758.267,584.499 755.336,584.976C754.52,585.222 753.708,585.469 752.891,585.717C749.636,586.704 746.44,587.171 743.271,587.382C739.547,587.848 724.434,584.765 721.176,583.419C712.435,579.659 711.102,575.23 707.327,571.543C705.897,570.225 704.829,568.139 704.275,566.053C703.346,562.676 703.497,559.043 703.673,555.164C704.582,547.139 707.551,539.407 711.774,532.214C712.73,530.668 712.73,530.668 712.734,528.334C711.337,529.094 710.493,529.597 709.795,531.144C708.75,533.459 707.469,535.518 705.895,537.824C706.16,535.5 707.381,533.962 708.37,532.159C710.991,527.529 713.842,523.174 717.186,519.075C720.563,514.719 724.141,510.885 728.21,507.316C732.312,503.492 736.62,500.188 741.098,497.663C742.199,497.16 743.015,496.913 743.862,496.41C745.228,495.906 746.565,495.668 747.201,496.977C747.902,497.763 748.975,497.525 749.441,498.047C750.164,498.578 750.308,499.612 750.777,500.143C753.248,501.479 762.896,504.215 765.072,505.798C765.795,506.328 766.2,507.371 766.609,508.415C767.655,510.766 768.41,513.374 770.063,514.948C770.528,515.469 770.669,516.513 770.848,517.291C771.02,520.401 770.958,523.256 769.796,526.614C768.86,530.22 766.909,533.559 764.729,536.644C763.476,538.437 762.252,539.974 761.236,542.033C760.511,543.835 759.292,545.373 758.038,547.166C756.757,549.225 754.78,550.487 752.886,550.982C751.23,551.732 749.37,551.961 747.831,551.677C747.073,551.412 746.262,551.659 745.852,550.616C745.881,550.359 745.621,550.35 745.621,550.35C743.5,550.579 742.455,548.228 740.975,547.432C740.744,547.166 740.565,546.388 740.595,546.123C741.238,545.098 740.771,544.577 740.598,543.799C739.783,541.712 739.002,539.361 737.93,537.274C737.752,536.497 736.999,536.222 736.123,536.981C735.716,538.272 734.551,539.297 734.375,540.853Z" style="fill:rgb(35,32,32);fill-rule:nonzero;"/>
            <path d="M833.127,550.643C834.615,546.773 845.842,528.536 848.024,525.461C849.861,523.155 851.694,520.85 853.295,518.278C855.097,516.238 856.93,513.932 858.213,511.873C859.46,510.08 861.15,509.064 862.749,508.835C864.579,508.863 866.179,508.625 867.748,508.652C870.891,508.698 872.458,511.05 873.647,514.445C873.617,514.701 873.588,514.957 873.528,515.479C873.67,518.846 874.047,522.488 874.16,526.121C874.306,529.488 873.629,533.102 873.249,536.469C872.986,538.793 872.989,541.136 872.46,543.451C873.679,544.256 873.302,545.281 873.592,545.025C874.178,544.521 875.919,545.317 876.5,544.814C876.822,544.302 877.374,544.045 877.694,543.534C878.829,542.773 879.965,542.014 881.155,540.733C882.089,539.453 882.875,539.471 883.772,540.779C883.683,541.557 883.335,542.325 882.494,542.829C882.198,543.085 881.88,543.597 881.56,544.11C881.212,544.888 880.599,545.656 879.787,545.903C879.497,546.16 879.201,546.406 878.913,546.663C878.623,546.919 878.071,547.166 878.042,547.432C877.751,547.688 877.486,547.678 877.195,547.935C876.031,548.95 875.221,549.197 874.173,549.188C873.913,549.179 872.835,549.426 871.698,550.186C870.859,550.689 870.072,550.68 869.607,550.149C867.896,549.087 866.089,548.804 864.348,547.999C861.297,547.175 859.263,544.293 858.364,540.651C857.321,535.966 857.906,530.796 859.25,525.892C860.034,523.567 860.27,521.5 860.764,519.431C861.198,517.885 861.64,516.339 862.077,514.783C862.715,513.758 862.804,512.98 862.66,511.938C862.399,511.938 861.903,511.672 861.844,512.193C861.553,512.44 860.974,512.953 860.654,513.465C859.373,515.524 857.829,517.574 856.257,519.88C855.324,521.161 854.626,522.707 854.162,524.519C854.306,525.553 853.43,526.321 853.082,527.09C850.234,531.455 847.67,535.563 845.544,540.459C843.831,544.064 841.648,547.139 839.67,550.735C836.701,556.133 833.267,561.01 830.792,566.675C830.06,568.478 828.779,570.536 827.763,572.585C827.061,574.132 819.118,586.458 817.402,587.729C817.345,588.241 816.529,588.498 815.948,589.001C812.308,593.356 808.675,593.037 804.608,591.938C804.023,592.451 803.561,591.92 803.096,591.398C799.027,590.301 797.375,586.384 796.913,581.196C796.629,576.785 797.155,572.128 797.652,567.727C798.674,561.001 799.694,554.276 800.982,547.56C803.135,540.075 802.033,540.578 804.91,533.624C807.887,523.558 806.662,525.095 811.469,515.058C811.933,513.246 813.123,511.974 813.854,510.162C816.211,505.542 818.249,501.424 820.812,497.315C822.241,493.966 823.341,493.463 825.901,494.021C827.731,494.049 830.027,494.597 832.325,495.156C833.866,495.439 835.376,495.979 837.268,497.818C838.716,501.213 841.07,503.583 843.337,506.722C845.219,510.903 845.396,514.015 843.268,518.91C841.376,524.062 841.29,520.172 839.366,525.59C834.738,536.405 827.491,544.851 823.499,554.642C818.169,567.004 831.583,555.017 833.127,550.643Z" style="fill:rgb(35,32,32);fill-rule:nonzero;"/>
            <path d="M336.172,696.014L338.585,696.014C340.661,696.014 342.289,695.383 343.475,694.11C344.659,692.839 345.251,691.137 345.251,688.996C345.251,686.863 344.659,685.161 343.475,683.89C342.289,682.618 340.661,681.986 338.585,681.986L336.172,681.986L336.172,696.014ZM338.585,677.859C342.141,677.859 345.062,678.885 347.347,680.953C349.635,683.011 350.776,685.692 350.776,688.986C350.776,692.271 349.635,694.962 347.347,697.029C345.062,699.106 342.141,700.141 338.585,700.141L330.744,700.141L330.744,677.859L338.585,677.859Z" style="fill:rgb(35,32,32);fill-rule:nonzero;"/>
            <path d="M382.24,677.796L382.24,681.923L374.176,681.923L374.176,686.718L381.288,686.718L381.288,690.844L374.176,690.844L374.176,696.014L382.24,696.014L382.24,700.141L368.748,700.141L368.748,677.796L382.24,677.796Z" style="fill:rgb(35,32,32);fill-rule:nonzero;"/>
            <path d="M409.002,681.821C408.325,681.821 407.769,682.005 407.334,682.362C406.902,682.728 406.684,683.24 406.684,683.917C406.684,684.595 406.886,685.144 407.288,685.555C407.689,685.967 408.212,686.287 408.86,686.507C409.505,686.727 410.223,686.937 411.017,687.139C411.811,687.34 412.6,687.587 413.382,687.87C414.165,688.154 414.881,688.511 415.526,688.932C416.171,689.361 416.695,689.957 417.098,690.734C417.5,691.503 417.702,692.427 417.702,693.507C417.702,695.392 416.933,697.002 415.398,698.348C413.865,699.692 411.843,700.369 409.336,700.369C406.826,700.369 404.807,699.766 403.271,698.558C401.736,697.35 400.97,695.639 400.97,693.415L406.749,693.415C406.895,695.19 407.805,696.078 409.478,696.078C410.26,696.078 410.875,695.877 411.319,695.456C411.763,695.044 411.987,694.522 411.987,693.891C411.987,693.251 411.786,692.738 411.383,692.336C410.98,691.933 410.457,691.612 409.811,691.384C409.166,691.146 408.446,690.936 407.652,690.734C406.858,690.533 406.069,690.276 405.287,689.983C404.504,689.691 403.791,689.334 403.144,688.923C402.499,688.511 401.975,687.916 401.572,687.139C401.171,686.369 400.97,685.454 400.97,684.394C400.97,682.325 401.741,680.66 403.287,679.415C404.832,678.162 406.806,677.54 409.207,677.54C411.609,677.54 413.552,678.079 415.034,679.178C416.514,680.267 417.287,681.986 417.352,684.329L411.447,684.329C411.363,683.523 411.102,682.911 410.669,682.472C410.235,682.041 409.679,681.821 409.002,681.821Z" style="fill:rgb(35,32,32);fill-rule:nonzero;"/>
            <rect x="436.528" y="677.859" width="5.429" height="22.282" style="fill:rgb(35,32,32);fill-rule:nonzero;"/>
            <path d="M463.274,697.112C461.062,694.962 459.957,692.235 459.957,688.932C459.957,685.638 461.062,682.911 463.274,680.761C465.486,678.61 468.191,677.54 471.386,677.54C473.864,677.54 476.064,678.198 477.991,679.507C479.916,680.815 481.259,682.637 482.021,684.97L475.545,684.97C474.699,683.341 473.345,682.526 471.482,682.526C469.618,682.526 468.154,683.104 467.085,684.265C466.015,685.437 465.482,686.991 465.482,688.932C465.482,690.881 466.015,692.437 467.085,693.607C468.154,694.77 469.588,695.347 471.386,695.347C472.677,695.347 473.731,695.025 474.545,694.386C475.36,693.735 475.904,692.875 476.181,691.796L469.895,691.796L469.895,687.669L482.021,687.669L482.021,691.796C481.621,693.827 480.509,695.721 478.688,697.478C477.821,698.319 476.746,699.016 475.467,699.537C474.186,700.067 472.825,700.333 471.386,700.333C468.191,700.333 465.486,699.263 463.274,697.112Z" style="fill:rgb(35,32,32);fill-rule:nonzero;"/>
            <path d="M514.564,677.796L519.995,677.796L519.995,700.141L514.564,700.141L505.485,686.076L505.485,700.141L500.056,700.141L500.056,677.796L505.485,677.796L514.564,691.859L514.564,677.796Z" style="fill:rgb(35,32,32);fill-rule:nonzero;"/>
            <path d="M570.916,681.821C570.239,681.821 569.683,682.005 569.249,682.362C568.816,682.728 568.599,683.24 568.599,683.917C568.599,684.595 568.801,685.144 569.203,685.555C569.603,685.967 570.127,686.287 570.774,686.507C571.419,686.727 572.138,686.937 572.932,687.139C573.726,687.34 574.515,687.587 575.297,687.87C576.08,688.154 576.795,688.511 577.44,688.932C578.086,689.361 578.609,689.957 579.012,690.734C579.415,691.503 579.616,692.427 579.616,693.507C579.616,695.392 578.848,697.002 577.312,698.348C575.78,699.692 573.758,700.369 571.25,700.369C568.741,700.369 566.721,699.766 565.186,698.558C563.651,697.35 562.885,695.639 562.885,693.415L568.663,693.415C568.81,695.19 569.72,696.078 571.392,696.078C572.175,696.078 572.79,695.877 573.233,695.456C573.678,695.044 573.901,694.522 573.901,693.891C573.901,693.251 573.701,692.738 573.298,692.336C572.895,691.933 572.372,691.612 571.727,691.384C571.081,691.146 570.361,690.936 569.566,690.734C568.773,690.533 567.983,690.276 567.201,689.983C566.419,689.691 565.705,689.334 565.058,688.923C564.413,688.511 563.889,687.916 563.486,687.139C563.086,686.369 562.885,685.454 562.885,684.394C562.885,682.325 563.656,680.66 565.202,679.415C566.746,678.162 568.721,677.54 571.122,677.54C573.524,677.54 575.466,678.079 576.949,679.178C578.429,680.267 579.202,681.986 579.266,684.329L573.362,684.329C573.277,683.523 573.017,682.911 572.584,682.472C572.149,682.041 571.593,681.821 570.916,681.821Z" style="fill:rgb(35,32,32);fill-rule:nonzero;"/>
            <path d="M596.919,681.986L596.919,677.859L614.506,677.859L614.506,681.986L608.412,681.986L608.412,700.141L602.983,700.141L602.983,681.986L596.919,681.986Z" style="fill:rgb(35,32,32);fill-rule:nonzero;"/>
            <path d="M632.189,691.155L632.189,677.859L637.617,677.859L637.617,691.155C637.617,692.491 637.947,693.516 638.603,694.238C639.258,694.962 640.223,695.318 641.493,695.318C642.762,695.318 643.734,694.962 644.412,694.238C645.088,693.516 645.43,692.491 645.43,691.155L645.43,677.859L650.858,677.859L650.858,691.155C650.858,693.122 650.398,694.824 649.477,696.252C648.557,697.68 647.392,698.723 645.983,699.382C644.577,700.04 643.048,700.369 641.397,700.369C638.814,700.369 636.634,699.564 634.856,697.954C633.079,696.343 632.189,694.083 632.189,691.155Z" style="fill:rgb(35,32,32);fill-rule:nonzero;"/>
            <path d="M675.461,696.014L677.875,696.014C679.949,696.014 681.578,695.383 682.763,694.11C683.948,692.839 684.54,691.137 684.54,688.996C684.54,686.863 683.948,685.161 682.763,683.89C681.578,682.618 679.949,681.986 677.875,681.986L675.461,681.986L675.461,696.014ZM677.875,677.859C681.429,677.859 684.35,678.885 686.636,680.953C688.923,683.011 690.064,685.692 690.064,688.986C690.064,692.271 688.923,694.962 686.636,697.029C684.35,699.106 681.429,700.141 677.875,700.141L670.033,700.141L670.033,677.859L677.875,677.859Z" style="fill:rgb(35,32,32);fill-rule:nonzero;"/>
            <rect x="708.036" y="677.859" width="5.428" height="22.282" style="fill:rgb(35,32,32);fill-rule:nonzero;"/>
            <path d="M747.165,693.607C748.233,692.437 748.769,690.881 748.769,688.932C748.769,686.991 748.233,685.437 747.165,684.265C746.094,683.104 744.667,682.526 742.878,682.526C741.089,682.526 739.662,683.104 738.593,684.265C737.522,685.437 736.99,686.991 736.99,688.932C736.99,690.881 737.522,692.437 738.593,693.607C739.662,694.77 741.089,695.347 742.878,695.347C744.667,695.347 746.094,694.77 747.165,693.607ZM734.782,697.13C732.57,694.971 731.465,692.235 731.465,688.932C731.465,685.638 732.57,682.911 734.782,680.761C736.994,678.61 739.703,677.54 742.91,677.54C746.117,677.54 748.814,678.61 751.006,680.761C753.197,682.911 754.293,685.638 754.293,688.932C754.293,692.235 753.19,694.971 750.99,697.13C748.789,699.29 746.09,700.369 742.894,700.369C739.698,700.369 736.994,699.29 734.782,697.13Z" style="fill:rgb(35,32,32);fill-rule:nonzero;"/>
        </g>
    </g>
</svg>
