<?xml version="1.0" encoding="UTF-8" standalone="no"?>
<!DOCTYPE svg PUBLIC "-//W3C//DTD SVG 1.1//EN" "http://www.w3.org/Graphics/SVG/1.1/DTD/svg11.dtd">
<svg width="100%" height="100%" viewBox="0 0 839 157" version="1.1" xmlns="http://www.w3.org/2000/svg" xmlns:xlink="http://www.w3.org/1999/xlink" xml:space="preserve" xmlns:serif="http://www.serif.com/" style="fill-rule:evenodd;clip-rule:evenodd;stroke-linejoin:round;stroke-miterlimit:1.41421;">
    <g transform="matrix(1,0,0,1,-3.634,-24.384)">
        <g transform="matrix(1,0,0,1,-138,-447)">
            <path d="M179.648,569.267L179.199,568.947L184.631,561.205L179.648,569.267ZM210.097,535.767L210.065,535.767C209.381,535.309 208.562,534.75 207.514,534.048C207.514,534.048 208.598,534.771 210.097,535.767ZM299.974,498.62C301.721,499.364 303.476,500.115 305.235,500.862C304.988,500.853 304.735,500.838 304.484,500.817C302.17,500.499 299.853,500.197 297.53,499.872C297.953,500.086 298.381,500.288 298.813,500.492C289.852,499.969 280.917,499.419 272.033,498.774C259.208,496.775 245.431,495.416 231.475,494.849C235.516,494.021 239.349,493.089 242.917,492.082C260.678,494.268 277.731,497.135 296.324,497.967C297.553,498.17 298.764,498.391 299.974,498.62ZM279.64,519.317C270.521,518.748 261.258,518.341 251.752,518.119C248.214,518.032 244.722,518.169 241.377,518.533C237.637,516.506 233.676,514.542 228.591,512.946C237.106,514.158 246.833,514.632 255.78,515.447C265.704,516.363 275.462,517.209 285.188,517.977C284.05,518.071 282.911,518.144 281.759,518.238C280.642,518.367 278.455,518.238 279.64,519.317ZM168.766,520.972C169.359,521.146 169.819,521.411 170.575,521.841C170.575,521.841 170.566,521.841 168.766,520.972ZM934.975,554.953C909.418,553.855 883.71,552.833 857.951,551.995C859.752,551.65 861.544,551.313 863.353,550.982C865.144,550.863 866.935,550.723 868.727,550.603C885.29,550.5 901.853,550.283 918.474,549.872C924.681,549.952 929.816,548.289 930.146,546.122C930.244,544.014 925.635,542.31 919.659,542.146C920.625,542.019 921.584,541.881 922.556,541.766C923.534,541.672 924.231,541.256 923.965,540.922C923.583,540.546 922.336,540.305 921.387,540.398C917.89,540.885 914.46,541.403 911.017,541.916C879.456,541.121 847.852,541.372 816.247,541.786C850.256,539.301 884.723,537.596 919.433,536.926C918.731,537.185 918.65,537.633 919.514,537.917C920.252,538.155 921.72,538.15 922.435,537.89C923.259,537.596 923.119,537.139 922.368,536.894C922.336,536.886 922.323,536.882 922.291,536.874C940.92,536.543 959.612,536.5 978.353,536.798C979.447,536.831 980.387,536.494 980.365,536.081C980.343,535.663 979.339,535.337 978.124,535.35C916.04,534.374 854.458,537.122 794.3,542.079C791.024,542.122 787.738,542.174 784.439,542.209C784.439,542.202 784.439,542.189 784.435,542.18C783.399,540.553 781.226,539.114 778.274,537.94C799.571,537.233 820.752,536.396 842.009,535.42C859.716,535.558 877.422,535.704 895.165,535.81C897.721,535.835 899.859,535.151 899.918,534.19C899.994,533.314 897.879,532.625 895.192,532.563C890.844,532.502 886.496,532.484 882.148,532.433C885.731,531.314 888.076,529.729 888.314,527.951C888.557,526.237 886.757,524.674 883.732,523.467C902.915,521.845 921.918,520.042 940.465,517.645C941.554,517.511 942.135,517.135 941.748,516.759C941.361,516.388 940.241,516.187 939.165,516.323C912.191,517.348 885.564,518.881 858.861,520.082C837.783,517.977 817.16,515.7 794.373,514.879C761.189,513.747 730.024,515.958 698.901,518.169C687.708,517.611 676.554,517.19 665.486,516.929C667.044,516.111 667.972,515.14 667.972,514.085C667.972,513.82 667.854,513.563 667.728,513.301C677.472,513.439 687.271,513.543 697.231,513.649C789.566,514.597 876.27,507.355 964.59,501.373C970.239,501.138 974.325,499.359 973.646,497.435C972.984,495.497 967.768,494.099 962.137,494.333C919.784,494.346 880.744,497.699 837.888,501.022C807.371,503.375 780.56,505.11 749.914,506.75C714.032,508.642 680.654,508.223 645.48,508.179C642.023,507.872 638.559,507.662 635.062,507.777C631.524,507.887 627.996,507.998 624.489,508.105C596.957,507.833 569.957,506.595 543.091,505.278C575.236,504.089 607.318,502.698 638.941,500.067C641.218,499.96 642.722,499.229 642.487,498.485C642.083,497.731 640.039,497.189 637.762,497.302C593.671,498.928 549.419,499.568 505.23,500.368C493.177,493.697 467.661,489.762 444.86,489.523C436.439,489.404 428.635,490.146 420.767,491.241C424.44,491.524 428.022,491.775 431.691,492.061C420.848,492.294 411.609,494.016 402.471,495.799C401.675,495.711 400.878,495.621 400.023,495.57C378.802,491.882 354.016,492.608 331.093,491.013C331.579,491.869 332.173,492.713 332.659,493.565C328.42,492.91 325.944,491.37 321.299,490.903C322.604,491.524 323.819,492.151 325.125,492.776C325.035,492.769 324.935,492.757 324.846,492.749C319.881,491.365 313.896,490.752 307.68,490.698C293.573,486.739 276.351,484.456 258.305,483.379C255.976,482.354 252.488,481.641 248.399,481.51C246.67,481.189 244.65,480.972 243.398,480.524C232.182,476.366 218.486,473.518 203.377,471.384C206.285,472.173 209.322,472.961 212.235,473.748C207.869,473.096 203.561,472.416 198.696,472.375C199.205,472.868 199.862,473.361 200.375,473.858C185.352,470.286 164.751,471.567 154.367,476.687C143.944,481.82 147.616,488.856 162.645,492.423L164.813,492.977C157.138,493.765 150.44,495.442 146.658,498.391C144.637,500.012 146.406,502.063 146.842,503.951C146.23,506.683 152.284,509.072 160.322,509.267C162.502,509.317 164.582,509.192 166.491,508.945C175.766,509.953 185.25,510.754 194.272,511.978C196.054,512.282 198.228,512.017 199.169,511.381C199.97,510.752 199.2,510.009 197.355,509.729C190.854,508.453 184.558,507.1 178.292,505.725C177.771,505.88 177.254,506.038 176.732,506.201C176.953,505.968 177.26,505.767 177.571,505.567C177.001,505.441 176.429,505.316 175.86,505.191C176.305,505.072 176.72,504.941 177.179,504.829C177.655,504.895 178.124,504.962 178.598,505.027C179.392,504.672 180.304,504.36 181.341,504.093C192.595,505.042 203.738,506.1 214.219,507.915C214.832,508.03 213.806,509.251 214.93,509.701C215.494,509.922 216.074,510.124 216.682,510.329C214.8,510.064 212.811,509.839 210.672,509.67C202.617,511.401 199.574,512.053 197.472,512.503C197.463,512.496 197.44,512.491 197.436,512.486C197.436,512.486 197.417,512.491 196.805,512.645C195.834,512.854 194.983,513.033 193.754,513.298C193.754,513.298 193.764,513.34 193.764,513.404C193.521,513.467 193.259,513.533 192.989,513.6C191.787,513.52 190.585,513.427 189.375,513.353C188.016,513.243 186.697,513.467 186.036,513.846C185.563,513.543 185.058,513.234 184.42,512.927C177.533,512.329 177.533,512.329 170.466,511.789C170.466,511.789 170.48,512.1 170.71,512.534C170.431,512.563 168.077,512.897 165.327,512.729C162.681,512.781 162.681,512.781 156.073,512.269L159.264,513.495L156.47,512.645L157.199,514.042L155.911,512.519L154.709,513.663C154.709,513.663 154.691,513.649 149.169,510.341C148.737,510.413 147.711,510.582 145.136,511.013C145.136,511.013 144.42,511.327 143.898,511.708C143.84,512.115 143.84,512.115 141.639,513.538C141.639,513.538 141.589,514.006 141.805,514.503C142.481,514.966 142.481,514.966 142.651,516.247C142.651,516.247 143.413,516.741 144.524,517.166C145.586,517.412 145.861,517.476 149.799,518.268C149.457,518.482 149.133,518.712 148.845,518.946C148.084,521.323 148.084,521.323 153.004,526.848C153.004,526.848 155.749,528.357 160.196,529.446C165.358,529.971 165.358,529.971 171.322,530.519C171.322,530.519 172.618,530.724 174.86,530.993C176.529,531.891 176.899,532.125 178.136,532.934C178.136,532.934 178.145,532.934 178.164,532.945C177.024,533.001 175.908,533.16 174.981,533.42C172.294,534.194 171.92,535.542 174.176,536.457C171.209,540.115 172.983,543.429 176.732,546.6C175.589,547.808 175.062,549.089 175.215,550.401C170.823,553.524 168.086,556.845 166.938,560.379L166.412,563.467C167.681,566.073 171.368,568.51 176.84,570.382L178.497,571.124L176.926,573.67C183.933,580.446 197.805,585.877 206.37,592.346L212.811,595.757C217.492,598.512 224.918,600.53 233.618,601.503L242.813,602.479C244.749,602.526 246.67,602.559 248.619,602.581C238.834,605.742 233.456,610.399 235.247,615.318C238.331,623.411 260.124,629.16 283.91,628.063C347.404,627.742 408.705,627.196 473.599,623.831C521.641,621.379 565.222,618.055 612.327,618.067C657.376,614.563 700.774,610.029 744.724,604.607C781.653,600.089 809.91,591.003 842.573,584.094C843.522,583.913 843.612,583.458 843.108,583.13C842.352,582.799 841.024,582.767 840.173,582.983C788.355,589.002 736.132,594.224 680.592,595.444C674.228,595.573 667.972,595.598 661.778,595.543C661.094,595.419 660.342,595.333 659.528,595.309C653.897,594.914 648.239,594.566 642.591,594.235C644.558,594.214 646.521,594.188 648.492,594.147C652.394,594.2 655.738,593.177 656.017,591.797C656.026,591.219 655.477,590.689 654.568,590.251C669.007,588.805 683.135,586.92 697.218,584.937C701.422,584.787 705.288,584.301 708.618,583.57C724.902,584.576 741.24,585.3 757.615,586.228L761.67,586.624C767.043,586.913 772.224,586.082 774.803,584.481C775.635,584.011 776.131,583.501 776.378,582.988C813.663,580.154 851.525,578.036 886.726,572.723C888.512,572.451 889.458,571.874 889.169,571.232C889.831,571.386 890.708,571.429 891.492,571.268C895.687,570.195 900.39,569.537 905.345,568.959C906.426,568.737 907.016,568.362 906.511,568.035C905.998,567.623 904.774,567.461 903.806,567.635C898.738,568.257 893.778,569.002 889.233,570.038C888.746,570.162 888.422,570.357 888.337,570.566C887.324,570.168 885.722,569.986 884.134,570.162C847.753,571.959 812.534,575.969 775.807,576.846C793.77,574.398 812.152,572.702 831.482,570.849C854.815,568.639 876.279,565.474 899.801,564.209C901.025,564.204 901.843,563.822 901.713,563.446C901.556,563.072 900.552,562.745 899.346,562.841C851.155,564.746 808.919,573.98 759.145,573.984C757.187,573.98 755.229,573.941 753.298,573.887C768.65,570.666 783.724,567.374 798.753,564.13C844.539,562.768 890.128,560.715 935.159,557.7C937.36,557.683 939.137,557.041 939.084,556.295C939.039,555.543 937.167,554.935 934.975,554.953Z" style="fill:rgb(195,216,204);fill-rule:nonzero;"/>
        </g>
    </g>
</svg>
